<?xml version="1.0" encoding="UTF-8" standalone="no"?><!DOCTYPE svg PUBLIC "-//W3C//DTD SVG 1.1//EN" "http://www.w3.org/Graphics/SVG/1.1/DTD/svg11.dtd"><svg width="100%" height="100%" viewBox="0 0 180 36" version="1.1" xmlns="http://www.w3.org/2000/svg" xmlns:xlink="http://www.w3.org/1999/xlink" xml:space="preserve" xmlns:serif="http://www.serif.com/" style="fill-rule:evenodd;clip-rule:evenodd;stroke-linejoin:round;stroke-miterlimit:2;"><g><path d="M137.51,28.661l12.052,0l-3.341,5.974l-5.541,0l-3.17,-5.974Z" style="fill:#903a3a;stroke:#ceced6;stroke-width:0.2px;"/><path d="M137.51,7.339l12.052,0l-3.341,-5.975l-5.541,0l-3.17,5.975Z" style="fill:#903a3a;stroke:#ceced6;stroke-width:0.2px;"/><path d="M27.654,28.661l12.053,0l-3.341,5.974l-5.542,0l-3.17,-5.974Z" style="fill:#903a3a;stroke:#ceced6;stroke-width:0.2px;"/><path d="M27.654,7.339l12.053,0l-3.341,-5.975l-5.542,0l-3.17,5.975Z" style="fill:#903a3a;stroke:#ceced6;stroke-width:0.2px;"/><path d="M125.227,28.661l12.052,0l-3.34,5.974l-5.542,0l-3.17,-5.974Z" style="fill:#903a3a;stroke:#ceced6;stroke-width:0.2px;"/><path d="M97.763,25.293l27.464,0l-7.613,9.076l-12.627,0l-7.224,-9.076Z" style="fill:#903a3a;stroke:#ceced6;stroke-width:0.2px;"/><path d="M50.053,25.293l27.464,0l-7.613,9.076l-12.627,0l-7.224,-9.076Z" style="fill:#903a3a;stroke:#ceced6;stroke-width:0.2px;"/><path d="M50.053,10.962l27.464,0l-7.613,-9.075l-12.627,0l-7.224,9.075Z" style="fill:#903a3a;stroke:#ceced6;stroke-width:0.2px;"/><path d="M88.723,28.661l12.053,0l-3.341,5.974l-5.541,0l-3.171,-5.974Z" style="fill:#903a3a;stroke:#ceced6;stroke-width:0.2px;"/><path d="M76.44,28.661l12.053,0l-3.341,5.974l-5.541,0l-3.171,-5.974Z" style="fill:#903a3a;stroke:#ceced6;stroke-width:0.2px;"/><path d="M125.227,7.339l12.052,0l-3.34,-5.975l-5.542,0l-3.17,5.975Z" style="fill:#903a3a;stroke:#ceced6;stroke-width:0.2px;"/><path d="M39.937,28.661l12.053,0l-3.341,5.974l-5.542,0l-3.17,-5.974Z" style="fill:#903a3a;stroke:#ceced6;stroke-width:0.2px;"/><path d="M39.937,7.339l12.053,0l-3.341,-5.975l-5.542,0l-3.17,5.975Z" style="fill:#903a3a;stroke:#ceced6;stroke-width:0.2px;"/><path d="M19.125,3.444l-10.125,3.152l0,22.809l10.125,3.151l148.789,-0l3.086,-3.151l-0,-22.809l-3.086,-3.152l-148.789,-0Z" style="fill:#903a3a;stroke:#ceced6;stroke-width:0.2px;"/><path d="M93.023,1.364l0,6.239l3.596,0l0,2.08l1.144,1.039l2.126,0l7.029,-2.599l0,-5.718l-5.885,0l-1.144,-1.041l-6.866,0Z" style="fill:#903a3a;stroke:#ceced6;stroke-width:0.5px;"/><path d="M84.375,1.364l2.026,1.466l0,7.892l-0.901,0.776l-1.125,0l-0.721,-1.199l-1.157,0l-0.755,0.423l-2.207,0l-6.947,-2.08l0,-4.158l5.803,-2.079l1.144,-1.041l4.84,0Z" style="fill:#903a3a;stroke:#ceced6;stroke-width:0.5px;"/><path d="M85.5,1.746l0.562,-0.38l0.563,0.003l0.563,0.377l1.687,0l0.878,-0.382l1.144,0l1.144,0.521l2.289,0l1.021,-0.521l5.147,2.462l0,1.171l0.752,0l0.502,-1.084l1.149,0l0.599,1.084l0,1.603l-0.599,0.564l-2.403,0l0,0.964l-5.147,2.594l-0.449,0.393l-1.144,0l-0.572,-0.393l-3.186,0l-0.561,0.776l-1.095,0l-0.594,-0.776l-2.087,0l0,-0.004l-2.413,-1.387l-3.796,-1.203l0,-4.302l3.796,-1.538l2.25,0l0,-0.542Z" style="fill:#903a3a;stroke:#ceced6;stroke-width:0.5px;"/><path d="M85.5,2.83l9,0l4.407,1.489l0,3.346l-4.407,1.666l-6.268,0l-0.482,0.735l-1.741,0l-0.509,-0.735l-4.902,-1.666l0,-3.346l4.902,-1.489Z" style="fill:#903a3a;stroke:#ceced6;stroke-width:0.5px;"/><path d="M10.794,24.018l-1.144,0.447l1.144,0.433l59.505,0l0,-0.88l-59.505,0Z" style="fill:#ceced6;"/><path d="M10.794,11.982l-1.144,-0.428l1.144,-0.452l59.505,-0l0,0.88l-59.505,-0Z" style="fill:#ceced6;"/><rect x="69.331" y="3.444" width="0.968" height="29.112" style="fill:#ceced6;"/><path d="M169.856,11.982l1.144,-0.447l-1.144,-0.433l-59.505,-0l0,0.88l59.505,-0Z" style="fill:#ceced6;"/><path d="M169.09,18.44l1.91,-0.447l-1.91,-0.433l-99.344,0l0,0.88l99.344,0Z" style="fill:#ceced6;"/><path d="M169.856,24.018l1.144,0.428l-1.144,0.452l-59.505,0l0,-0.88l59.505,0Z" style="fill:#ceced6;"/><rect x="110.351" y="3.444" width="0.968" height="29.112" style="fill:#ceced6;"/><g><path d="M61.124,21.067c-0.055,0.388 -0.032,0.704 0.084,1.125l0.201,0.028l3.305,-0.372l2.09,-0.389l0.688,-0.259l-0.719,-0.163l-2.128,-0.124l-3.325,0.11l-0.196,0.044Z" style="fill:#ceced6;"/><path d="M61.172,21.712l-0.179,-0.001l-0.059,-0.033l-0.004,-0.052l0.054,-0.041l0.177,-0.025l0.011,0.152Z" style="fill:#ceced6;"/><path d="M61.693,21.599l0.097,0.528l0.008,0.183l-0.096,0.007l0.274,2.312c0.162,0.58 0.757,0.395 1.169,-0.133l0.135,-1.862l-0.084,-1.139l-1.503,0.104Z" style="fill:#ceced6;"/><path d="M61.693,21.599l0.018,-0.535l-0.019,-0.182l-0.096,0.007l-0.071,-2.326c0.075,-0.597 0.691,-0.496 1.177,-0.029l0.409,1.824l0.085,1.137l-1.503,0.104Z" style="fill:#ceced6;"/><path d="M66.762,21.25l-0.013,0.245l-0.019,1.13c-0.144,0.183 -0.269,0.248 -0.527,0.037l-0.404,-1.346l0.963,-0.066Z" style="fill:#ceced6;"/><path d="M66.789,21.248l-0.049,-0.242l-0.186,-1.115c-0.17,-0.162 -0.303,-0.208 -0.528,0.036l-0.2,1.387l0.963,-0.066Z" style="fill:#ceced6;"/></g><g><path d="M74.431,25.608c-0.402,0.066 -0.707,0.182 -1.089,0.415l0.033,0.193l1.361,2.925l1.013,1.804l0.462,0.553l-0.054,-0.709l-0.516,-1.992l-1.108,-3.022l-0.102,-0.167Z" style="fill:#ceced6;"/><path d="M73.807,25.846l-0.053,-0.164l0.015,-0.065l0.049,-0.018l0.057,0.036l0.078,0.155l-0.146,0.056Z" style="fill:#ceced6;"/><path d="M74.074,26.291l-0.494,0.248l-0.178,0.062l-0.035,-0.086l-2.207,0.946c-0.526,0.323 -0.164,0.813 0.482,1.034l1.885,-0.435l1.101,-0.419l-0.554,-1.35Z" style="fill:#ceced6;"/><path d="M74.074,26.291l0.536,-0.144l0.175,-0.072l-0.036,-0.087l2.282,-0.763c0.613,-0.111 0.698,0.485 0.382,1.072l-1.683,0.924l-1.102,0.42l-0.554,-1.35Z" style="fill:#ceced6;"/><path d="M75.942,30.843l-0.247,0.062l-1.124,0.322c-0.225,-0.077 -0.326,-0.173 -0.194,-0.474l1.211,-0.775l0.354,0.865Z" style="fill:#ceced6;"/><path d="M75.952,30.867l0.225,-0.117l1.049,-0.506c0.109,-0.205 0.115,-0.341 -0.195,-0.474l-1.434,0.232l0.355,0.865Z" style="fill:#ceced6;"/></g><g><path d="M80.023,26.089c-0.401,0.066 -0.707,0.183 -1.089,0.415l0.033,0.193l1.361,2.925l1.013,1.804l0.463,0.553l-0.055,-0.709l-0.516,-1.993l-1.108,-3.021l-0.102,-0.167Z" style="fill:#ceced6;"/><path d="M79.399,26.327l-0.053,-0.165l0.015,-0.064l0.05,-0.019l0.057,0.037l0.078,0.155l-0.147,0.056Z" style="fill:#ceced6;"/><path d="M79.667,26.772l-0.494,0.248l-0.178,0.062l-0.036,-0.087l-2.207,0.947c-0.526,0.323 -0.164,0.813 0.483,1.034l1.884,-0.435l1.102,-0.42l-0.554,-1.349Z" style="fill:#ceced6;"/><path d="M79.667,26.772l0.536,-0.145l0.174,-0.072l-0.035,-0.086l2.282,-0.763c0.613,-0.11 0.697,0.486 0.381,1.073l-1.683,0.923l-1.101,0.419l-0.554,-1.349Z" style="fill:#ceced6;"/><path d="M81.535,31.324l-0.247,0.063l-1.124,0.321c-0.226,-0.078 -0.327,-0.173 -0.195,-0.474l1.211,-0.775l0.355,0.865Z" style="fill:#ceced6;"/><path d="M81.545,31.348l0.225,-0.117l1.048,-0.506c0.109,-0.205 0.115,-0.341 -0.194,-0.474l-1.434,0.232l0.355,0.865Z" style="fill:#ceced6;"/></g><g><path d="M85.681,26.089c-0.402,0.066 -0.707,0.183 -1.089,0.415l0.033,0.193l1.361,2.925l1.013,1.804l0.462,0.553l-0.054,-0.709l-0.516,-1.993l-1.108,-3.021l-0.102,-0.167Z" style="fill:#ceced6;"/><path d="M85.057,26.327l-0.053,-0.165l0.015,-0.064l0.049,-0.019l0.057,0.037l0.078,0.155l-0.146,0.056Z" style="fill:#ceced6;"/><path d="M85.324,26.772l-0.494,0.248l-0.178,0.062l-0.035,-0.087l-2.207,0.947c-0.526,0.323 -0.164,0.813 0.482,1.034l1.885,-0.435l1.101,-0.42l-0.554,-1.349Z" style="fill:#ceced6;"/><path d="M85.324,26.772l0.536,-0.145l0.175,-0.072l-0.036,-0.086l2.282,-0.763c0.613,-0.11 0.698,0.486 0.382,1.073l-1.683,0.923l-1.102,0.419l-0.554,-1.349Z" style="fill:#ceced6;"/><path d="M87.192,31.324l-0.247,0.063l-1.124,0.321c-0.225,-0.078 -0.326,-0.173 -0.194,-0.474l1.211,-0.775l0.354,0.865Z" style="fill:#ceced6;"/><path d="M87.202,31.348l0.225,-0.117l1.049,-0.506c0.109,-0.205 0.115,-0.341 -0.195,-0.474l-1.434,0.232l0.355,0.865Z" style="fill:#ceced6;"/></g><g><path d="M91.338,26.089c-0.401,0.066 -0.707,0.183 -1.089,0.415l0.033,0.193l1.361,2.925l1.013,1.804l0.463,0.553l-0.055,-0.709l-0.516,-1.993l-1.108,-3.021l-0.102,-0.167Z" style="fill:#ceced6;"/><path d="M90.714,26.327l-0.053,-0.165l0.015,-0.064l0.05,-0.019l0.057,0.037l0.078,0.155l-0.147,0.056Z" style="fill:#ceced6;"/><path d="M90.982,26.772l-0.494,0.248l-0.178,0.062l-0.036,-0.087l-2.207,0.947c-0.526,0.323 -0.164,0.813 0.483,1.034l1.884,-0.435l1.102,-0.42l-0.554,-1.349Z" style="fill:#ceced6;"/><path d="M90.982,26.772l0.536,-0.145l0.174,-0.072l-0.035,-0.086l2.282,-0.763c0.613,-0.11 0.697,0.486 0.381,1.073l-1.683,0.923l-1.101,0.419l-0.554,-1.349Z" style="fill:#ceced6;"/><path d="M92.85,31.324l-0.247,0.063l-1.124,0.321c-0.226,-0.078 -0.327,-0.173 -0.195,-0.474l1.211,-0.775l0.355,0.865Z" style="fill:#ceced6;"/><path d="M92.86,31.348l0.225,-0.117l1.048,-0.506c0.109,-0.205 0.115,-0.341 -0.194,-0.474l-1.434,0.232l0.355,0.865Z" style="fill:#ceced6;"/></g><g><path d="M96.931,26.089c-0.402,0.066 -0.707,0.183 -1.089,0.415l0.033,0.193l1.361,2.925l1.013,1.804l0.462,0.553l-0.054,-0.709l-0.516,-1.993l-1.108,-3.021l-0.102,-0.167Z" style="fill:#ceced6;"/><path d="M96.307,26.327l-0.053,-0.165l0.015,-0.064l0.049,-0.019l0.057,0.037l0.078,0.155l-0.146,0.056Z" style="fill:#ceced6;"/><path d="M96.574,26.772l-0.494,0.248l-0.178,0.062l-0.035,-0.087l-2.207,0.947c-0.526,0.323 -0.164,0.813 0.482,1.034l1.885,-0.435l1.101,-0.42l-0.554,-1.349Z" style="fill:#ceced6;"/><path d="M96.574,26.772l0.536,-0.145l0.175,-0.072l-0.036,-0.086l2.282,-0.763c0.613,-0.11 0.698,0.486 0.382,1.073l-1.683,0.923l-1.102,0.419l-0.554,-1.349Z" style="fill:#ceced6;"/><path d="M98.442,31.324l-0.247,0.063l-1.124,0.321c-0.225,-0.078 -0.326,-0.173 -0.194,-0.474l1.211,-0.775l0.354,0.865Z" style="fill:#ceced6;"/><path d="M98.452,31.348l0.225,-0.117l1.049,-0.506c0.109,-0.205 0.115,-0.341 -0.195,-0.474l-1.434,0.232l0.355,0.865Z" style="fill:#ceced6;"/></g><g><path d="M131.965,21.679c-0.095,0.382 -0.105,0.698 -0.034,1.127l0.197,0.048l3.328,-0.051l2.12,-0.186l0.711,-0.191l-0.698,-0.231l-2.105,-0.33l-3.32,-0.211l-0.199,0.025Z" style="fill:#ceced6;"/><path d="M131.946,22.326l-0.178,-0.019l-0.056,-0.038l0.002,-0.051l0.058,-0.037l0.178,-0.007l-0.004,0.152Z" style="fill:#ceced6;"/><path d="M132.476,22.264l0.042,0.535l-0.011,0.183l-0.097,-0.003l0.033,2.326c0.101,0.593 0.711,0.466 1.176,-0.019l0.329,-1.839l0.034,-1.141l-1.506,-0.042Z" style="fill:#ceced6;"/><path d="M132.476,22.264l0.074,-0.532l0,-0.182l-0.097,-0.003l0.172,-2.321c0.136,-0.585 0.738,-0.426 1.173,0.086l0.218,1.854l-0.034,1.14l-1.506,-0.042Z" style="fill:#ceced6;"/><path d="M137.556,22.406l-0.039,0.243l-0.136,1.122c-0.163,0.168 -0.294,0.22 -0.529,-0.015l-0.261,-1.377l0.965,0.027Z" style="fill:#ceced6;"/><path d="M137.582,22.407l-0.023,-0.246l-0.069,-1.128c-0.153,-0.177 -0.28,-0.236 -0.529,-0.014l-0.344,1.361l0.965,0.027Z" style="fill:#ceced6;"/></g><g><path d="M59.977,11.076c-0.102,0.38 -0.117,0.696 -0.054,1.126l0.196,0.051l3.328,0.004l2.124,-0.15l0.714,-0.18l-0.694,-0.243l-2.099,-0.364l-3.315,-0.266l-0.2,0.022Z" style="fill:#ceced6;"/><path d="M59.946,11.722l-0.177,-0.021l-0.055,-0.04l0.003,-0.051l0.058,-0.035l0.179,-0.005l-0.008,0.152Z" style="fill:#ceced6;"/><path d="M60.478,11.669l0.032,0.535l-0.015,0.182l-0.096,-0.003l-0.009,2.326c0.09,0.595 0.703,0.478 1.177,0l0.361,-1.833l0.054,-1.14l-1.504,-0.067Z" style="fill:#ceced6;"/><path d="M60.478,11.669l0.083,-0.53l0.003,-0.183l-0.097,-0.004l0.214,-2.317c0.147,-0.585 0.746,-0.414 1.172,0.104l0.184,1.858l-0.055,1.139l-1.504,-0.067Z" style="fill:#ceced6;"/><path d="M65.554,11.895l-0.043,0.243l-0.156,1.119c-0.166,0.166 -0.298,0.216 -0.528,-0.023l-0.237,-1.382l0.964,0.043Z" style="fill:#ceced6;"/><path d="M65.581,11.896l-0.019,-0.245l-0.049,-1.128c-0.149,-0.18 -0.276,-0.242 -0.528,-0.024l-0.369,1.354l0.965,0.043Z" style="fill:#ceced6;"/></g><g><path d="M54.263,25.143c-0.102,0.38 -0.117,0.696 -0.054,1.127l0.196,0.05l3.328,0.004l2.124,-0.15l0.714,-0.179l-0.694,-0.243l-2.099,-0.364l-3.315,-0.266l-0.2,0.021Z" style="fill:#ceced6;"/><path d="M54.232,25.789l-0.177,-0.021l-0.055,-0.04l0.002,-0.051l0.059,-0.035l0.179,-0.005l-0.008,0.152Z" style="fill:#ceced6;"/><path d="M54.764,25.736l0.032,0.536l-0.015,0.182l-0.096,-0.005l-0.009,2.327c0.09,0.595 0.703,0.478 1.176,0l0.362,-1.833l0.054,-1.139l-1.504,-0.068Z" style="fill:#ceced6;"/><path d="M54.764,25.736l0.083,-0.529l0.003,-0.183l-0.097,-0.004l0.214,-2.319c0.147,-0.583 0.746,-0.413 1.172,0.105l0.184,1.857l-0.055,1.141l-1.504,-0.068Z" style="fill:#ceced6;"/><path d="M59.84,25.962l-0.043,0.244l-0.156,1.119c-0.166,0.165 -0.298,0.215 -0.529,-0.024l-0.237,-1.382l0.965,0.043Z" style="fill:#ceced6;"/><path d="M59.867,25.964l-0.019,-0.246l-0.049,-1.129c-0.149,-0.18 -0.276,-0.241 -0.529,-0.023l-0.368,1.354l0.965,0.044Z" style="fill:#ceced6;"/></g><g><path d="M46.424,10.946c-0.066,0.387 -0.052,0.703 0.051,1.126l0.2,0.034l3.315,-0.283l2.101,-0.333l0.695,-0.24l-0.714,-0.182l-2.124,-0.181l-3.327,0.02l-0.197,0.039Z" style="fill:#ceced6;"/><path d="M46.454,11.592l-0.179,-0.006l-0.058,-0.035l-0.003,-0.051l0.055,-0.039l0.178,-0.021l0.007,0.152Z" style="fill:#ceced6;"/><path d="M46.978,11.494l0.082,0.53l0.002,0.182l-0.096,0.005l0.207,2.318c0.145,0.584 0.745,0.416 1.172,-0.102l0.189,-1.857l-0.051,-1.139l-1.505,0.063Z" style="fill:#ceced6;"/><path d="M46.978,11.494l0.034,-0.536l-0.014,-0.182l-0.097,0.004l-0.003,-2.326c0.092,-0.595 0.705,-0.477 1.177,0.003l0.356,1.834l0.052,1.14l-1.505,0.063Z" style="fill:#ceced6;"/><path d="M52.055,11.281l-0.02,0.245l-0.052,1.128c-0.15,0.18 -0.276,0.241 -0.528,0.022l-0.365,-1.355l0.965,-0.04Z" style="fill:#ceced6;"/><path d="M52.082,11.28l-0.042,-0.243l-0.154,-1.12c-0.165,-0.167 -0.297,-0.216 -0.528,0.022l-0.241,1.381l0.965,-0.04Z" style="fill:#ceced6;"/></g><g><path d="M154.008,12.311c-0.056,0.388 -0.033,0.704 0.082,1.125l0.201,0.028l3.306,-0.37l2.091,-0.387l0.687,-0.258l-0.718,-0.164l-2.129,-0.126l-3.325,0.108l-0.195,0.044Z" style="fill:#ceced6;"/><path d="M154.055,12.956l-0.179,-0.001l-0.059,-0.033l-0.004,-0.051l0.054,-0.041l0.177,-0.026l0.011,0.152Z" style="fill:#ceced6;"/><path d="M154.577,12.844l0.096,0.529l0.008,0.182l-0.097,0.007l0.273,2.311c0.162,0.581 0.756,0.396 1.169,-0.132l0.137,-1.862l-0.084,-1.137l-1.502,0.102Z" style="fill:#ceced6;"/><path d="M154.577,12.844l0.018,-0.536l-0.019,-0.182l-0.097,0.007l-0.068,-2.326c0.075,-0.596 0.691,-0.494 1.176,-0.028l0.408,1.824l0.084,1.139l-1.502,0.102Z" style="fill:#ceced6;"/><path d="M159.645,12.498l-0.013,0.247l-0.02,1.129c-0.144,0.183 -0.269,0.247 -0.527,0.035l-0.403,-1.345l0.963,-0.066Z" style="fill:#ceced6;"/><path d="M159.672,12.496l-0.049,-0.242l-0.185,-1.114c-0.17,-0.163 -0.303,-0.209 -0.527,0.036l-0.202,1.387l0.963,-0.067Z" style="fill:#ceced6;"/></g><path d="M88.982,7.164c0,-1.467 1.236,-2.658 2.759,-2.658c1.523,0 2.759,1.191 2.759,2.658c0,1.467 -1.236,2.657 -2.759,2.657c-1.523,0 -2.759,-1.19 -2.759,-2.657Z" style="fill:#903a3a;stroke:#ceced6;stroke-width:0.5px;"/><path d="M95.793,6.08c0,-0.598 0.518,-1.084 1.156,-1.084c0.637,0 1.155,0.486 1.155,1.084c0,0.598 -0.518,1.084 -1.155,1.084c-0.638,0 -1.156,-0.486 -1.156,-1.084Z" style="fill:#903a3a;stroke:#ceced6;stroke-width:0.5px;"/></g></svg>