<?xml version="1.0" encoding="UTF-8" standalone="no"?><!DOCTYPE svg PUBLIC "-//W3C//DTD SVG 1.1//EN" "http://www.w3.org/Graphics/SVG/1.1/DTD/svg11.dtd"><svg width="100%" height="100%" viewBox="0 0 36 36" version="1.1" xmlns="http://www.w3.org/2000/svg" xmlns:xlink="http://www.w3.org/1999/xlink" xml:space="preserve" xmlns:serif="http://www.serif.com/" style="fill-rule:evenodd;clip-rule:evenodd;stroke-linejoin:round;stroke-miterlimit:2;"><g><circle cx="18" cy="18" r="18" style="fill:#febf03;"/><path d="M18,0c9.934,0 18,8.066 18,18c0,9.934 -8.066,18 -18,18c-9.934,0 -18,-8.066 -18,-18c0,-9.934 8.066,-18 18,-18Zm0,1.5c9.107,0 16.5,7.393 16.5,16.5c0,9.107 -7.393,16.5 -16.5,16.5c-9.107,0 -16.5,-7.393 -16.5,-16.5c0,-9.107 7.393,-16.5 16.5,-16.5Z" style="fill:#903a3a;"/><path d="M30.376,19.377c-0.078,-0.785 -0.444,-0.712 -0.779,-0.434c0,0 -2.818,2.882 -3.479,3.372c-0.579,0.428 -0.31,0.839 0.005,1.007c0,0 0.144,0.091 0.443,0.24c-0.86,1.093 -2.504,2.381 -5.588,2.834c-0.344,0.051 -0.656,-0.211 -0.672,-0.557l-0.716,-9.132l2.829,-0.474c0.397,-0.067 0.688,-0.41 0.688,-0.812c0,-0.401 -0.291,-0.745 -0.688,-0.811l-3.033,-0.508l-0.246,-3.127c1.33,-0.432 2.295,-1.683 2.295,-3.155c0,-1.832 -1.49,-3.32 -3.32,-3.32c-1.829,0 -3.32,1.488 -3.32,3.32c0,1.474 0.97,2.727 2.302,3.157l-0.208,3.118l-3.08,0.517c-0.397,0.066 -0.688,0.41 -0.688,0.811c0,0.402 0.291,0.746 0.688,0.812l2.905,0.486l-0.615,9.209c-0.013,0.313 -0.274,0.563 -0.587,0.563c-0.028,0 -0.057,-0.002 -0.085,-0.006c-3.264,-0.482 -4.971,-1.923 -5.838,-3.078c0.355,-0.229 0.53,-0.386 0.53,-0.386c0.315,-0.166 0.581,-0.579 0.004,-1.007c-0.661,-0.49 -3.701,-3.073 -3.701,-3.073c-0.335,-0.28 -0.701,-0.353 -0.778,0.434c-0.071,0.719 -0.129,2.719 0.446,4.912c0.084,0.324 0.25,0.468 0.747,0.324c0.372,-0.107 0.709,-0.224 1.018,-0.342c1.856,3.546 5.193,6.839 10.26,6.839c5.052,0 8.582,-3.237 10.354,-6.781c0.281,0.095 0.585,0.191 0.922,0.288c0.497,0.144 0.663,-0.002 0.747,-0.324c0.577,-2.195 0.309,-4.197 0.238,-4.916Zm-13.789,-11.557c0,-0.843 0.685,-1.528 1.528,-1.528c0.843,0 1.528,0.685 1.528,1.528c0,0.842 -0.685,1.527 -1.528,1.527c-0.843,0 -1.528,-0.685 -1.528,-1.527Z" style="fill:#444e45;fill-rule:nonzero;"/><path d="M16.632,8.312c-0.003,-0.155 -0.045,-0.333 -0.045,-0.492c0,-0.779 0.586,-1.422 1.34,-1.515c0,0 0.066,-0.011 0.084,-0.013c0.246,-0.04 0.339,-0.14 0.339,-0.32c0,-0.179 -0.195,-0.297 -0.319,-0.31c-0.723,-0.071 -1.446,0.33 -1.79,0.887c-0.372,0.599 -0.419,1.166 -0.217,1.707c0.078,0.207 0.239,0.287 0.361,0.273c0.114,-0.011 0.249,-0.064 0.247,-0.217Z" style="fill:#212121;fill-rule:nonzero;"/><path d="M18.115,28.764c-0,0 -1.044,-2.009 -2.685,-2.275c-3.194,-0.519 -4.901,-1.867 -5.784,-3.007l-0.095,-0.042l-2.237,-2.863c-0,0 1.856,7.495 10.801,8.187Z" style="fill:#b7c9bd;fill-rule:nonzero;"/><path d="M20.934,28.669c-1.783,0.519 -2.495,2.423 -2.495,2.423c0,0 1.787,-0.051 3.401,-0.625c3.089,-1.115 5.331,-3.546 6.629,-6.14c0,-0.002 0.565,-1.526 0.683,-2.692c0.002,0.002 -1.182,4.985 -8.218,7.034Z" style="fill:#212121;fill-opacity:0.89;fill-rule:nonzero;"/><path d="M13.132,15.337l4.613,0c0.137,0 0.206,-0.166 0.108,-0.262l-0.98,-0.975l-3.06,0.512c-0.37,0.06 -0.643,0.361 -0.681,0.725Z" style="fill:#b7c9bd;fill-rule:nonzero;"/><path d="M23.1,15.503l-4.49,-0.155c-0.14,-0.004 -0.213,0.164 -0.114,0.262l1.1,1.091l2.823,-0.47c0.368,-0.062 0.641,-0.364 0.681,-0.728Z" style="fill:#212121;fill-rule:nonzero;"/></g></svg>