<?xml version="1.0" encoding="UTF-8" standalone="no"?><!DOCTYPE svg PUBLIC "-//W3C//DTD SVG 1.1//EN" "http://www.w3.org/Graphics/SVG/1.1/DTD/svg11.dtd"><svg width="100%" height="100%" viewBox="0 0 260 260" version="1.1" xmlns="http://www.w3.org/2000/svg" xmlns:xlink="http://www.w3.org/1999/xlink" xml:space="preserve" xmlns:serif="http://www.serif.com/" style="fill-rule:evenodd;clip-rule:evenodd;stroke-linejoin:round;stroke-miterlimit:2;"><path d="M129.6,0c71.528,0 129.6,58.072 129.6,129.6c0,71.528 -58.072,129.6 -129.6,129.6c-71.528,-0 -129.6,-58.072 -129.6,-129.6c0,-71.528 58.072,-129.6 129.6,-129.6Zm37.279,39.6l52.721,0l0,52.721l37.279,37.279l-37.279,37.279l-0,52.721l-52.721,0l-37.279,37.279l-37.279,-37.279l-52.721,0l0,-52.721l-37.279,-37.279l37.279,-37.279l0,-52.721l52.721,0l37.279,-37.279l37.279,37.279Z" style="fill:#808080;"/></svg>