<?xml version="1.0" encoding="UTF-8" standalone="no"?><!DOCTYPE svg PUBLIC "-//W3C//DTD SVG 1.1//EN" "http://www.w3.org/Graphics/SVG/1.1/DTD/svg11.dtd"><svg width="100%" height="100%" viewBox="0 0 36 36" version="1.1" xmlns="http://www.w3.org/2000/svg" xmlns:xlink="http://www.w3.org/1999/xlink" xml:space="preserve" xmlns:serif="http://www.serif.com/" style="fill-rule:evenodd;clip-rule:evenodd;stroke-linejoin:round;stroke-miterlimit:2;"><g><g><path d="M28.75,16.323l-5.228,3.059l2.414,3.182l-3.969,0.267l1.155,5.972l-4.386,-4.081l-2.257,3.375l-1.417,-3.766l-5.227,3.059l2.516,-5.582l-3.809,-1.095l3.095,-2.596l-4.387,-4.081l5.943,0.632l-0.098,-4.051l3.329,2.161l2.517,-5.581l1.155,5.972l3.749,-1.409l-1.038,3.932l5.943,0.631Z" style="fill:#f20d0d;"/><path d="M25.698,16.796l-3.918,2.21l1.788,2.173l-2.965,0.25l0.836,4.134l-3.258,-2.766l-1.701,2.382l-1.04,-2.595l-3.919,2.212l1.905,-3.921l-2.839,-0.7l2.323,-1.855l-3.258,-2.765l4.434,0.343l-0.053,-2.816l2.475,1.449l1.905,-3.921l0.836,4.134l2.807,-1.04l-0.793,2.749l4.435,0.343Z" style="fill:#f2af0d;"/><path d="M21.313,14.812l-1.295,2.602l1.735,0.38l-1.492,1.267l1.93,1.714l-2.73,-0.107l-0.051,1.83l-1.487,-0.878l-1.295,2.6l-0.392,-2.667l-1.766,0.75l0.572,-1.81l-2.73,-0.107l2.489,-1.54l-1.041,-1.367l1.841,-0.24l-0.392,-2.667l1.93,1.715l1.122,-1.594l0.565,1.66l2.487,-1.541Z" style="fill:#e5f20d;"/><path d="M21.935,16.099l-1.957,1.754l1.308,0.916l-1.667,0.558l1.018,2.112l-2.228,-1.029l-0.664,1.529l-0.934,-1.252l-2.487,2.59l1.109,-3.225l-1.719,0.027l1.09,-1.332l-2.229,-1.028l2.587,-0.447l-1.312,-2.718l2.523,1.634l0.579,-2.387l1.019,2.112l1.472,-0.962l-0.095,1.597l2.587,-0.449Z" style="fill:#fff;"/><path d="M21.935,16.099l-1.957,1.754l1.308,0.916l-1.667,0.558l1.018,2.112l-2.228,-1.029l-0.664,1.529l-0.934,-1.252l-2.487,2.59l1.109,-3.225l-1.719,0.027l1.09,-1.332l-2.229,-1.028l2.587,-0.447l-1.312,-2.718l2.523,1.634l0.579,-2.387l1.019,2.112l1.472,-0.962l-0.095,1.597l2.587,-0.449Zm-1.081,0.522l-1.102,0.987c-0.076,0.068 -0.115,0.165 -0.109,0.264c0.005,0.099 0.057,0.19 0.139,0.248l0.778,0.545l-1.05,0.351c-0.089,0.03 -0.163,0.097 -0.199,0.184c-0.038,0.086 -0.035,0.184 0.005,0.269l0.618,1.281l-1.383,-0.638c-0.082,-0.037 -0.177,-0.041 -0.262,-0.01c-0.084,0.032 -0.152,0.097 -0.189,0.179l-0.432,0.997l-0.588,-0.786c-0.058,-0.078 -0.151,-0.127 -0.25,-0.133c-0.099,-0.007 -0.195,0.032 -0.263,0.102l-1.435,1.495l0.618,-1.799c0.035,-0.101 0.018,-0.212 -0.046,-0.299c-0.064,-0.086 -0.167,-0.137 -0.276,-0.136l-1.005,0.017l0.642,-0.785c0.064,-0.079 0.088,-0.182 0.065,-0.281c-0.023,-0.099 -0.09,-0.181 -0.184,-0.224l-1.27,-0.586l1.544,-0.267c0.103,-0.018 0.192,-0.082 0.24,-0.173c0.047,-0.092 0.05,-0.199 0.005,-0.292l-0.798,-1.653l1.52,0.986c0.092,0.059 0.207,0.07 0.308,0.032c0.102,-0.04 0.178,-0.127 0.203,-0.231l0.358,-1.477l0.612,1.266c0.042,0.086 0.12,0.149 0.213,0.176c0.094,0.026 0.194,0.009 0.275,-0.043l0.913,-0.597l-0.056,0.939c-0.005,0.1 0.035,0.197 0.112,0.264c0.077,0.068 0.18,0.096 0.281,0.079l1.448,-0.251Z" style="fill:#e5f20d;"/></g></g></svg>