<?xml version="1.0" encoding="UTF-8" standalone="no"?><!DOCTYPE svg PUBLIC "-//W3C//DTD SVG 1.1//EN" "http://www.w3.org/Graphics/SVG/1.1/DTD/svg11.dtd"><svg width="100%" height="100%" viewBox="0 0 36 36" version="1.1" xmlns="http://www.w3.org/2000/svg" xmlns:xlink="http://www.w3.org/1999/xlink" xml:space="preserve" xmlns:serif="http://www.serif.com/" style="fill-rule:evenodd;clip-rule:evenodd;stroke-linejoin:round;stroke-miterlimit:2;"><g><g><ellipse cx="14.942" cy="18.015" rx="4.088" ry="4.493" style="fill:#FFFFFF;"/><ellipse cx="15.034" cy="14.719" rx="2.907" ry="3.194" style="fill:#FFFFFF;"/><ellipse cx="10.854" cy="17.984" rx="2.363" ry="2.596" style="fill:#FFFFFF;"/><ellipse cx="17.444" cy="13.575" rx="1.322" ry="1.453" style="fill:#FFFFFF;"/><ellipse cx="20.2" cy="16.882" rx="3.158" ry="3.47" style="fill:#FFFFFF;"/><ellipse cx="14.942" cy="22.507" rx="4.088" ry="4.493" style="fill:#FFFFFF;"/><ellipse cx="19.408" cy="22.731" rx="2.566" ry="2.819" style="fill:#FFFFFF;"/><ellipse cx="10.651" cy="20.134" rx="2.566" ry="2.819" style="fill:#FFFFFF;"/><ellipse cx="20.41" cy="20.111" rx="3.161" ry="3.474" style="fill:#FFFFFF;"/></g><g><path d="M24.144,17.319l-3.746,2.23l1.73,2.319l-2.844,0.195l0.828,4.353l-3.143,-2.975l-1.617,2.46l-1.015,-2.745l-3.745,2.23l1.803,-4.069l-2.729,-0.798l2.217,-1.892l-3.143,-2.975l4.258,0.461l-0.07,-2.953l2.385,1.575l1.803,-4.068l0.828,4.353l2.686,-1.027l-0.744,2.866l4.258,0.46Z" style="fill:#f20d0d;"/><path d="M21.957,17.664l-2.807,1.611l1.281,1.584l-2.124,0.182l0.599,3.013l-2.334,-2.016l-1.219,1.736l-0.745,-1.891l-2.808,1.612l1.365,-2.858l-2.034,-0.51l1.664,-1.352l-2.334,-2.016l3.177,0.25l-0.038,-2.052l1.773,1.056l1.365,-2.858l0.599,3.013l2.011,-0.758l-0.568,2.004l3.177,0.25Z" style="fill:#f2af0d;"/><path d="M18.816,16.218l-0.928,1.896l1.243,0.277l-1.069,0.924l1.383,1.249l-1.956,-0.078l-0.037,1.334l-1.065,-0.64l-0.928,1.895l-0.281,-1.944l-1.265,0.547l0.41,-1.319l-1.956,-0.078l1.783,-1.123l-0.746,-0.996l1.319,-0.175l-0.281,-1.944l1.383,1.25l0.804,-1.162l0.405,1.21l1.782,-1.123Z" style="fill:#e5f20d;"/><path d="M19.261,17.156l-1.402,1.278l0.937,0.668l-1.194,0.407l0.729,1.539l-1.596,-0.75l-0.476,1.115l-0.669,-0.913l-1.782,1.888l0.795,-2.351l-1.232,0.02l0.781,-0.971l-1.597,-0.749l1.854,-0.326l-0.94,-1.981l1.807,1.191l0.415,-1.74l0.73,1.539l1.055,-0.701l-0.068,1.164l1.853,-0.327Z" style="fill:#fff;"/><path d="M19.261,17.156l-1.402,1.278l0.937,0.668l-1.194,0.407l0.729,1.539l-1.596,-0.75l-0.476,1.115l-0.669,-0.913l-1.782,1.888l0.795,-2.351l-1.232,0.02l0.781,-0.971l-1.597,-0.749l1.854,-0.326l-0.94,-1.981l1.807,1.191l0.415,-1.74l0.73,1.539l1.055,-0.701l-0.068,1.164l1.853,-0.327Zm-0.774,0.38l-0.79,0.72c-0.054,0.049 -0.082,0.12 -0.078,0.192c0.004,0.072 0.041,0.139 0.1,0.181l0.557,0.397c-0,-0 -0.752,0.256 -0.752,0.256c-0.064,0.022 -0.117,0.071 -0.143,0.134c-0.027,0.063 -0.025,0.134 0.004,0.196l0.443,0.934c-0,0 -0.991,-0.465 -0.991,-0.465c-0.059,-0.027 -0.127,-0.03 -0.188,-0.007c-0.06,0.023 -0.109,0.07 -0.135,0.13l-0.31,0.727c-0,0 -0.421,-0.573 -0.421,-0.573c-0.042,-0.057 -0.108,-0.093 -0.179,-0.097c-0.071,-0.005 -0.14,0.023 -0.189,0.074l-1.028,1.09c-0,-0 0.443,-1.311 0.443,-1.311c0.025,-0.074 0.013,-0.155 -0.033,-0.218c-0.046,-0.063 -0.12,-0.1 -0.198,-0.099l-0.72,0.012c-0,-0 0.46,-0.572 0.46,-0.572c0.046,-0.058 0.063,-0.133 0.047,-0.205c-0.017,-0.072 -0.065,-0.132 -0.132,-0.163l-0.91,-0.427c-0,0 1.106,-0.195 1.106,-0.195c0.074,-0.013 0.138,-0.06 0.172,-0.126c0.034,-0.067 0.036,-0.145 0.004,-0.213l-0.572,-1.205c0,0 1.089,0.719 1.089,0.719c0.066,0.043 0.148,0.051 0.221,0.023c0.073,-0.029 0.127,-0.092 0.145,-0.168l0.257,-1.077c0,-0 0.438,0.923 0.438,0.923c0.03,0.063 0.086,0.109 0.153,0.128c0.067,0.019 0.139,0.007 0.197,-0.031l0.654,-0.435c0,-0 -0.04,0.684 -0.04,0.684c-0.004,0.073 0.025,0.144 0.08,0.193c0.055,0.049 0.129,0.07 0.201,0.057l1.038,-0.183Z" style="fill:#e5f20d;"/></g></g></svg>