<?xml version="1.0" encoding="UTF-8" standalone="no"?><!DOCTYPE svg PUBLIC "-//W3C//DTD SVG 1.1//EN" "http://www.w3.org/Graphics/SVG/1.1/DTD/svg11.dtd"><svg width="100%" height="100%" viewBox="0 0 36 36" version="1.1" xmlns="http://www.w3.org/2000/svg" xmlns:xlink="http://www.w3.org/1999/xlink" xml:space="preserve" xmlns:serif="http://www.serif.com/" style="fill-rule:evenodd;clip-rule:evenodd;stroke-linejoin:round;stroke-miterlimit:2;"><g><g><path d="M22.656,12.067c1.983,2.063 1.956,5.439 -0.059,7.536c-2.016,2.096 -5.261,2.124 -7.244,0.061c-1.982,-2.062 -1.955,-5.439 0.06,-7.535c2.015,-2.097 5.261,-2.124 7.243,-0.062Z" style="fill:#FFFFFF;"/><path d="M24.361,10.462c1.41,1.467 1.391,3.868 -0.042,5.358c-1.433,1.491 -3.741,1.511 -5.15,0.044c-1.41,-1.466 -1.391,-3.867 0.042,-5.358c1.433,-1.49 3.741,-1.51 5.15,-0.044Z" style="fill:#FFFFFF;"/><path d="M17.548,9.908c1.146,1.192 1.13,3.143 -0.034,4.355c-1.165,1.211 -3.041,1.227 -4.186,0.035c-1.146,-1.192 -1.131,-3.143 0.034,-4.354c1.165,-1.212 3.04,-1.228 4.186,-0.036Z" style="fill:#FFFFFF;"/><path d="M25.992,13.17c0.641,0.667 0.633,1.759 -0.019,2.437c-0.652,0.678 -1.701,0.687 -2.343,0.02c-0.641,-0.667 -0.632,-1.759 0.02,-2.437c0.651,-0.678 1.701,-0.687 2.342,-0.02Z" style="fill:#FFFFFF;"/><path d="M27.366,16.78c1.531,1.593 1.51,4.201 -0.046,5.82c-1.557,1.62 -4.064,1.641 -5.595,0.048c-1.531,-1.593 -1.51,-4.201 0.046,-5.82c1.557,-1.619 4.063,-1.641 5.595,-0.048Z" style="fill:#FFFFFF;"/><path d="M19.005,15.866c1.982,2.062 1.956,5.439 -0.06,7.535c-2.015,2.097 -5.26,2.124 -7.243,0.062c-1.982,-2.062 -1.956,-5.439 0.06,-7.535c2.015,-2.097 5.26,-2.125 7.243,-0.062Z" style="fill:#FFFFFF;"/><path d="M21.388,21.552c1.244,1.294 1.227,3.413 -0.038,4.728c-1.264,1.316 -3.301,1.333 -4.545,0.039c-1.244,-1.294 -1.228,-3.413 0.037,-4.729c1.265,-1.315 3.302,-1.333 4.546,-0.038Z" style="fill:#FFFFFF;"/><path d="M15.803,11.352c1.244,1.294 1.228,3.413 -0.037,4.728c-1.265,1.316 -3.301,1.334 -4.545,0.039c-1.245,-1.294 -1.228,-3.413 0.037,-4.729c1.264,-1.315 3.301,-1.333 4.545,-0.038Z" style="fill:#FFFFFF;"/><path d="M24.929,19.698c1.533,1.595 1.512,4.206 -0.046,5.827c-1.558,1.621 -4.068,1.643 -5.601,0.048c-1.533,-1.595 -1.513,-4.206 0.046,-5.827c1.558,-1.621 4.068,-1.643 5.601,-0.048Z" style="fill:#FFFFFF;"/></g><g><path d="M21.512,6.318l0.335,5.983l3.748,-0.8l-1.491,3.665l5.574,1.518l-5.367,2.181l1.89,3.46l-3.812,-0.342l0.336,5.984l-3.652,-4.636l-2.58,2.939l-0.865,-3.877l-5.367,2.181l3.11,-5.046l-3.485,-1.644l3.278,-2.054l-3.652,-4.636l5.573,1.517l0.427,-3.955l2.89,2.608l3.11,-5.046Z" style="fill:#f20d0d;"/><path d="M20.91,8.347l0.218,4.799l2.863,-0.712l-1.16,2.971l4.241,1.115l-4.106,1.851l1.419,2.744l-2.904,-0.204l0.218,4.799l-2.756,-3.655l-1.985,2.409l-0.635,-3.097l-4.106,1.851l2.402,-4.11l-2.646,-1.256l2.512,-1.71l-2.756,-3.655l4.241,1.114l0.35,-3.184l2.188,2.04l2.402,-4.11Z" style="fill:#f2af0d;"/><path d="M17.005,11.647l1.812,2.454l1.17,-1.492l0.478,2.024l2.503,-1.062l-1.382,2.579l1.679,0.899l-1.515,1.023l1.812,2.455l-2.667,-0.861l-0.131,2.048l-1.416,-1.392l-1.383,2.579l-0.265,-3.111l-1.761,0.367l0.641,-1.884l-2.668,-0.86l2.503,-1.062l-0.956,-1.821l1.811,0.227l-0.265,-3.11Z" style="fill:#e5f20d;"/><path d="M22.69,13.727l-1.331,2.432l1.605,0.49l-1.453,1.125l1.728,1.798l-2.551,-0.295l-0.131,1.771l-1.351,-0.955l-1.565,3.459l-0.011,-3.641l-1.686,0.604l0.618,-1.715l-2.55,-0.295l2.398,-1.321l-2.225,-2.314l3.047,0.812l-0.245,-2.614l1.728,1.797l1.123,-1.468l0.453,1.651l2.399,-1.321Z" style="fill:#fff;"/><path d="M22.69,13.727l-1.331,2.432l1.605,0.49l-1.453,1.125l1.728,1.798l-2.551,-0.295l-0.131,1.771l-1.351,-0.955l-1.565,3.459l-0.011,-3.641l-1.686,0.604l0.618,-1.715l-2.55,-0.295l2.398,-1.321l-2.225,-2.314l3.047,0.812l-0.245,-2.614l1.728,1.797l1.123,-1.468l0.453,1.651l2.399,-1.321Zm-0.607,0.608l-0.935,1.708c-0.034,0.064 -0.039,0.139 -0.011,0.206c0.027,0.067 0.083,0.118 0.152,0.139l1.162,0.355c-0,0 -1.087,0.841 -1.087,0.841c-0.054,0.042 -0.088,0.105 -0.093,0.173c-0.005,0.067 0.02,0.134 0.067,0.183l1.265,1.317c0,-0 -1.887,-0.218 -1.887,-0.218c-0.065,-0.008 -0.13,0.011 -0.18,0.053c-0.051,0.042 -0.082,0.102 -0.087,0.167l-0.1,1.348c0,0 -1.004,-0.71 -1.004,-0.71c-0.059,-0.041 -0.133,-0.054 -0.202,-0.035c-0.069,0.018 -0.126,0.067 -0.156,0.132l-1.11,2.453c0,-0 -0.007,-2.537 -0.007,-2.537c-0,-0.078 -0.038,-0.151 -0.102,-0.195c-0.064,-0.045 -0.146,-0.056 -0.219,-0.03l-1.207,0.432c0,0 0.446,-1.236 0.446,-1.236c0.025,-0.069 0.017,-0.145 -0.022,-0.207c-0.039,-0.063 -0.104,-0.104 -0.177,-0.112l-1.804,-0.209c0,-0 1.741,-0.958 1.741,-0.958c0.065,-0.036 0.11,-0.101 0.121,-0.174c0.012,-0.074 -0.012,-0.149 -0.064,-0.203l-1.629,-1.695c-0,-0 2.217,0.59 2.217,0.59c0.076,0.021 0.156,0.003 0.216,-0.048c0.06,-0.051 0.092,-0.128 0.084,-0.206l-0.181,-1.93c0,0 1.252,1.303 1.252,1.303c0.048,0.05 0.116,0.077 0.186,0.073c0.07,-0.004 0.135,-0.038 0.177,-0.094l0.83,-1.084c-0,0 0.325,1.184 0.325,1.184c0.019,0.071 0.07,0.129 0.138,0.158c0.067,0.028 0.144,0.024 0.209,-0.011l1.676,-0.923Z" style="fill:#e5f20d;"/></g></g></svg>