<?xml version="1.0" encoding="UTF-8" standalone="no"?><!DOCTYPE svg PUBLIC "-//W3C//DTD SVG 1.1//EN" "http://www.w3.org/Graphics/SVG/1.1/DTD/svg11.dtd"><svg width="100%" height="100%" viewBox="0 0 36 36" version="1.1" xmlns="http://www.w3.org/2000/svg" xmlns:xlink="http://www.w3.org/1999/xlink" xml:space="preserve" xmlns:serif="http://www.serif.com/" style="fill-rule:evenodd;clip-rule:evenodd;stroke-linejoin:round;stroke-miterlimit:2;"><g><g><path d="M26.626,15.189c0.724,2.811 -1.035,5.748 -3.926,6.553c-2.891,0.806 -5.825,-0.822 -6.549,-3.633c-0.724,-2.811 1.035,-5.747 3.925,-6.553c2.891,-0.806 5.826,0.822 6.55,3.633Z" style="fill:#FFFFFF;"/><path d="M28.985,14.655c0.514,1.999 -0.736,4.087 -2.792,4.66c-2.055,0.573 -4.142,-0.585 -4.657,-2.584c-0.514,-1.998 0.736,-4.086 2.792,-4.659c2.055,-0.573 4.142,0.584 4.657,2.583Z" style="fill:#FFFFFF;"/><path d="M23.139,10.702c0.418,1.625 -0.598,3.322 -2.269,3.787c-1.67,0.466 -3.366,-0.475 -3.785,-2.099c-0.418,-1.625 0.598,-3.322 2.269,-3.787c1.67,-0.466 3.366,0.475 3.785,2.099Z" style="fill:#FFFFFF;"/><path d="M29.06,17.851c0.235,0.909 -0.334,1.859 -1.269,2.12c-0.935,0.26 -1.884,-0.266 -2.118,-1.175c-0.234,-0.909 0.334,-1.859 1.269,-2.12c0.935,-0.26 1.884,0.266 2.118,1.175Z" style="fill:#FFFFFF;"/><path d="M28.441,21.704c0.56,2.171 -0.799,4.439 -3.032,5.062c-2.232,0.622 -4.499,-0.635 -5.058,-2.806c-0.56,-2.172 0.799,-4.44 3.032,-5.062c2.232,-0.622 4.499,0.635 5.058,2.806Z" style="fill:#FFFFFF;"/><path d="M21.388,16.649c0.724,2.811 -1.035,5.748 -3.926,6.553c-2.89,0.806 -5.825,-0.822 -6.549,-3.633c-0.724,-2.811 1.035,-5.747 3.926,-6.553c2.89,-0.806 5.825,0.822 6.549,3.633Z" style="fill:#FFFFFF;"/><path d="M20.611,22.83c0.454,1.764 -0.65,3.606 -2.464,4.112c-1.814,0.506 -3.656,-0.516 -4.11,-2.28c-0.455,-1.764 0.649,-3.607 2.463,-4.112c1.814,-0.506 3.656,0.516 4.111,2.28Z" style="fill:#FFFFFF;"/><path d="M20.827,11.075c0.455,1.765 -0.649,3.607 -2.463,4.113c-1.815,0.506 -3.656,-0.516 -4.111,-2.28c-0.454,-1.764 0.65,-3.607 2.464,-4.113c1.814,-0.505 3.656,0.516 4.11,2.28Z" style="fill:#FFFFFF;"/><path d="M24.749,23.013c0.56,2.174 -0.8,4.445 -3.035,5.068c-2.236,0.623 -4.505,-0.636 -5.065,-2.81c-0.56,-2.174 0.801,-4.444 3.036,-5.067c2.235,-0.623 4.504,0.635 5.064,2.809Z" style="fill:#FFFFFF;"/></g><g><g><path d="M14.355,28.313l1.403,-5.892l-3.667,-0.32l2.415,-3.113l-4.679,-3.098l5.546,-0.543l-0.745,-3.903l3.398,1.445l1.403,-5.891l2.025,5.556l3.206,-2.092l-0.314,4.006l5.545,-0.542l-4.294,3.976l2.727,2.61l-3.593,1.031l2.025,5.556l-4.679,-3.098l-1.521,3.705l-1.907,-3.37l-4.294,3.977Z" style="fill:#f20d0d;"/><path d="M15.449,26.46l1.157,-4.723l-2.86,-0.165l1.919,-2.537l-3.621,-2.351l4.336,-0.568l-0.54,-3.088l2.639,1.067l1.157,-4.722l1.523,4.372l2.526,-1.744l-0.288,3.197l4.337,-0.568l-3.395,3.27l2.101,2.011l-2.817,0.908l1.523,4.372l-3.621,-2.351l-1.227,2.985l-1.453,-2.635l-3.396,3.27Z" style="fill:#f2af0d;"/><path d="M20.303,24.26l-0.945,-2.848l-1.469,1.08l0.135,-2.058l-2.548,0.289l1.965,-2.049l-1.26,-1.335l1.65,-0.536l-0.944,-2.848l2.158,1.582l0.691,-1.905l0.884,1.726l1.965,-2.049l-0.631,3.027l1.687,0.158l-1.103,1.602l2.159,1.582l-2.549,0.289l0.352,2.002l-1.566,-0.735l-0.631,3.026Z" style="fill:#e5f20d;"/><path d="M15.503,22.789l1.492,-2.857l-1.836,-0.465l1.646,-1.371l-1.991,-1.951l2.913,0.185l0.131,-2.031l1.551,1.011l1.749,-4.044l0.051,4.158l1.917,-0.79l-0.687,1.996l2.912,0.186l-2.722,1.651l2.563,2.512l-3.485,-0.747l0.308,2.972l-1.99,-1.951l-1.266,1.743l-0.534,-1.858l-2.722,1.651Z" style="fill:#fff;"/><path d="M15.503,22.789l1.492,-2.857l-1.836,-0.465l1.646,-1.371l-1.991,-1.951l2.913,0.185l0.131,-2.031l1.551,1.011l1.749,-4.044l0.051,4.158l1.917,-0.79l-0.687,1.996l2.912,0.186l-2.722,1.651l2.563,2.512l-3.485,-0.747l0.308,2.972l-1.99,-1.951l-1.266,1.743l-0.534,-1.858l-2.722,1.651Zm0.611,-0.651l1.094,-2.095c0.034,-0.065 0.036,-0.142 0.006,-0.209c-0.03,-0.067 -0.089,-0.116 -0.16,-0.134l-1.38,-0.35c-0,-0 1.284,-1.07 1.284,-1.07c0.052,-0.043 0.084,-0.107 0.086,-0.175c0.003,-0.067 -0.023,-0.133 -0.071,-0.181l-1.53,-1.499c0,0 2.268,0.145 2.268,0.145c0.133,0.008 0.247,-0.092 0.255,-0.224l0.105,-1.622c-0,0 1.207,0.787 1.207,0.787c0.059,0.039 0.132,0.049 0.2,0.029c0.068,-0.021 0.123,-0.07 0.151,-0.135l1.303,-3.011c-0,-0 0.037,3.033 0.037,3.033c0.001,0.08 0.041,0.154 0.108,0.198c0.066,0.044 0.15,0.052 0.223,0.021l1.426,-0.587c0,-0 -0.514,1.493 -0.514,1.493c-0.024,0.071 -0.014,0.149 0.027,0.211c0.042,0.063 0.11,0.102 0.185,0.107l2.15,0.137c-0,-0 -2.069,1.255 -2.069,1.255c-0.064,0.038 -0.106,0.104 -0.114,0.177c-0.009,0.074 0.017,0.147 0.07,0.199l1.972,1.933c-0,-0 -2.676,-0.573 -2.676,-0.573c-0.075,-0.016 -0.153,0.004 -0.21,0.056c-0.057,0.051 -0.086,0.127 -0.078,0.203l0.239,2.309c-0,0 -1.515,-1.485 -1.515,-1.485c-0.05,-0.049 -0.119,-0.073 -0.188,-0.068c-0.07,0.006 -0.133,0.042 -0.174,0.099l-0.977,1.345c-0,0 -0.398,-1.385 -0.398,-1.385c-0.021,-0.072 -0.074,-0.13 -0.144,-0.157c-0.069,-0.028 -0.148,-0.021 -0.212,0.018l-1.986,1.205Z" style="fill:#e5f20d;"/></g></g></g></svg>