<?xml version="1.0" encoding="UTF-8" standalone="no"?><!DOCTYPE svg PUBLIC "-//W3C//DTD SVG 1.1//EN" "http://www.w3.org/Graphics/SVG/1.1/DTD/svg11.dtd"><svg width="100%" height="100%" viewBox="0 0 36 36" version="1.1" xmlns="http://www.w3.org/2000/svg" xmlns:xlink="http://www.w3.org/1999/xlink" xml:space="preserve" xmlns:serif="http://www.serif.com/" style="fill-rule:evenodd;clip-rule:evenodd;stroke-linejoin:round;stroke-miterlimit:2;"><g><g><ellipse cx="16.275" cy="16.373" rx="2.996" ry="3.546" style="fill:#fff;"/><ellipse cx="16.343" cy="13.771" rx="2.13" ry="2.521" style="fill:#fff;"/><ellipse cx="13.279" cy="16.349" rx="1.732" ry="2.049" style="fill:#fff;"/><ellipse cx="18.109" cy="12.869" rx="0.969" ry="1.147" style="fill:#fff;"/><ellipse cx="20.129" cy="15.479" rx="2.314" ry="2.739" style="fill:#fff;"/><ellipse cx="16.275" cy="19.919" rx="2.996" ry="3.546" style="fill:#fff;"/><ellipse cx="19.549" cy="20.095" rx="1.88" ry="2.225" style="fill:#fff;"/><ellipse cx="13.13" cy="18.046" rx="1.88" ry="2.225" style="fill:#fff;"/><ellipse cx="20.283" cy="18.027" rx="2.317" ry="2.742" style="fill:#fff;"/></g><g><path d="M21.425,16.596l-2.124,1.29l0.981,1.341l-1.613,0.113l0.47,2.517l-1.782,-1.72l-0.917,1.422l-0.575,-1.587l-2.124,1.289l1.022,-2.352l-1.547,-0.462l1.257,-1.094l-1.782,-1.721l2.414,0.267l-0.039,-1.708l1.352,0.911l1.022,-2.353l0.47,2.518l1.522,-0.594l-0.421,1.657l2.414,0.266Z" style="fill:#f20d0d;"/><path d="M20.185,16.796l-1.592,0.932l0.727,0.915l-1.205,0.106l0.34,1.742l-1.324,-1.166l-0.691,1.004l-0.422,-1.093l-1.592,0.932l0.774,-1.653l-1.154,-0.295l0.944,-0.782l-1.323,-1.166l1.801,0.145l-0.022,-1.187l1.006,0.611l0.774,-1.653l0.34,1.742l1.139,-0.438l-0.322,1.159l1.802,0.145Z" style="fill:#f2af0d;"/><path d="M18.404,15.96l-0.526,1.096l0.704,0.16l-0.605,0.534l0.784,0.723l-1.11,-0.045l-0.02,0.771l-0.604,-0.37l-0.526,1.096l-0.16,-1.124l-0.717,0.316l0.233,-0.763l-1.11,-0.045l1.011,-0.649l-0.422,-0.576l0.747,-0.102l-0.159,-1.124l0.784,0.723l0.456,-0.672l0.229,0.7l1.011,-0.649Z" style="fill:#e5f20d;"/><path d="M18.656,16.502l-0.795,0.739l0.532,0.386l-0.678,0.236l0.414,0.89l-0.905,-0.434l-0.27,0.645l-0.379,-0.528l-1.011,1.092l0.451,-1.36l-0.698,0.012l0.442,-0.562l-0.905,-0.433l1.051,-0.189l-0.533,-1.145l1.025,0.689l0.235,-1.007l0.414,0.89l0.598,-0.405l-0.039,0.673l1.051,-0.189Z" style="fill:#fff;"/><path d="M18.656,16.502l-0.795,0.739l0.532,0.386l-0.678,0.236l0.414,0.89l-0.905,-0.434l-0.27,0.645l-0.379,-0.528l-1.011,1.092l0.451,-1.36l-0.698,0.012l0.442,-0.562l-0.905,-0.433l1.051,-0.189l-0.533,-1.145l1.025,0.689l0.235,-1.007l0.414,0.89l0.598,-0.405l-0.039,0.673l1.051,-0.189Zm-0.762,0.381l-0.196,0.182c-0.053,0.049 -0.081,0.119 -0.076,0.19c0.004,0.072 0.04,0.138 0.098,0.18l0.16,0.117c0,-0 -0.243,0.084 -0.243,0.084c-0.064,0.022 -0.116,0.071 -0.143,0.133c-0.026,0.063 -0.025,0.134 0.004,0.195l0.132,0.283c-0,0 -0.302,-0.144 -0.302,-0.144c-0.06,-0.028 -0.128,-0.031 -0.189,-0.008c-0.062,0.024 -0.111,0.071 -0.136,0.132l-0.104,0.248c-0,0 -0.13,-0.179 -0.13,-0.179c-0.042,-0.059 -0.108,-0.095 -0.18,-0.1c-0.072,-0.004 -0.142,0.024 -0.191,0.077l-0.257,0.278c-0,0 0.102,-0.307 0.102,-0.307c0.024,-0.074 0.012,-0.155 -0.035,-0.218c-0.046,-0.063 -0.119,-0.099 -0.197,-0.098l-0.193,0.004c0,-0 0.13,-0.165 0.13,-0.165c0.045,-0.057 0.062,-0.132 0.045,-0.203c-0.016,-0.071 -0.064,-0.131 -0.13,-0.162l-0.234,-0.112c-0,-0 0.318,-0.057 0.318,-0.057c0.074,-0.014 0.137,-0.06 0.171,-0.126c0.034,-0.066 0.036,-0.144 0.005,-0.212l-0.17,-0.364c0,-0 0.31,0.208 0.31,0.208c0.065,0.044 0.148,0.053 0.221,0.024c0.074,-0.029 0.128,-0.092 0.146,-0.168l0.078,-0.331c-0,0 0.12,0.26 0.12,0.26c0.03,0.064 0.086,0.112 0.154,0.131c0.068,0.018 0.14,0.006 0.199,-0.033l0.196,-0.133c-0,0 -0.011,0.188 -0.011,0.188c-0.004,0.074 0.025,0.145 0.08,0.194c0.055,0.048 0.13,0.069 0.202,0.056l0.246,-0.044Z" style="fill:#e5f20d;"/></g></g></svg>