<?xml version="1.0" encoding="UTF-8" standalone="no"?><!DOCTYPE svg PUBLIC "-//W3C//DTD SVG 1.1//EN" "http://www.w3.org/Graphics/SVG/1.1/DTD/svg11.dtd"><svg width="100%" height="100%" viewBox="0 0 36 36" version="1.1" xmlns="http://www.w3.org/2000/svg" xmlns:xlink="http://www.w3.org/1999/xlink" xml:space="preserve" xmlns:serif="http://www.serif.com/" style="fill-rule:evenodd;clip-rule:evenodd;stroke-linejoin:round;stroke-miterlimit:2;"><g><g><ellipse cx="19.256" cy="19.344" rx="2.727" ry="2.922" style="fill:#fff;"/><ellipse cx="19.194" cy="21.487" rx="1.939" ry="2.078" style="fill:#fff;"/><ellipse cx="21.983" cy="19.364" rx="1.576" ry="1.689" style="fill:#fff;"/><ellipse cx="17.587" cy="22.231" rx="0.882" ry="0.945" style="fill:#fff;"/><ellipse cx="15.748" cy="20.08" rx="2.106" ry="2.257" style="fill:#fff;"/><ellipse cx="19.256" cy="16.422" rx="2.727" ry="2.922" style="fill:#fff;"/><ellipse cx="16.277" cy="16.277" rx="1.711" ry="1.834" style="fill:#fff;"/><ellipse cx="22.118" cy="17.965" rx="1.711" ry="1.834" style="fill:#fff;"/><ellipse cx="15.609" cy="17.981" rx="2.109" ry="2.259" style="fill:#fff;"/></g><g><path d="M19.438,15.011l0.275,1.956l1.267,-0.294l-0.414,1.213l1.955,0.449l-1.785,0.76l0.742,1.116l-1.319,-0.079l0.276,1.956l-1.379,-1.487l-0.808,0.985l-0.401,-1.262l-1.786,0.76l0.934,-1.679l-1.242,-0.508l1.071,-0.7l-1.379,-1.487l1.956,0.449l0.041,-1.298l1.063,0.829l0.933,-1.679Z" style="fill:#f20d0d;"/><path d="M19.2,15.979l0.182,1.455l0.882,-0.242l-0.294,0.912l1.358,0.3l-1.245,0.6l0.51,0.82l-0.917,-0.036l0.182,1.456l-0.952,-1.085l-0.566,0.749l-0.273,-0.934l-1.245,0.599l0.657,-1.27l-0.861,-0.357l0.749,-0.542l-0.952,-1.085l1.358,0.3l0.035,-0.97l0.735,0.6l0.657,-1.27Z" style="fill:#f2af0d;"/><path d="M18.052,17.016l0.627,0.729l0.332,-0.464l0.198,0.61l0.761,-0.345l-0.373,0.796l0.548,0.257l-0.451,0.325l0.627,0.729l-0.858,-0.237l0.007,0.623l-0.477,-0.41l-0.374,0.795l-0.157,-0.942l-0.544,0.128l0.157,-0.578l-0.858,-0.237l0.761,-0.345l-0.344,-0.544l0.575,0.052l-0.157,-0.942Z" style="fill:#e5f20d;"/><path d="M18.52,17.003l0.287,0.812l0.441,-0.266l-0.038,0.568l0.767,-0.022l-0.59,0.525l0.381,0.399l-0.496,0.112l0.475,1.08l-0.84,-0.756l-0.206,0.513l-0.268,-0.5l-0.59,0.525l0.187,-0.827l-0.988,0.029l0.811,-0.531l-0.652,-0.488l0.767,-0.023l-0.108,-0.564l0.473,0.24l0.187,-0.826Z" style="fill:#fff;"/><path d="M18.52,17.003l0.287,0.812l0.441,-0.266l-0.038,0.568l0.767,-0.022l-0.59,0.525l0.381,0.399l-0.496,0.112l0.475,1.08l-0.84,-0.756l-0.206,0.513l-0.268,-0.5l-0.59,0.525l0.187,-0.827l-0.988,0.029l0.811,-0.531l-0.652,-0.488l0.767,-0.023l-0.108,-0.564l0.473,0.24l0.187,-0.826Zm0.05,0.863l0.011,0.029c0.024,0.068 0.077,0.122 0.145,0.146c0.068,0.025 0.143,0.017 0.205,-0.02l0.047,-0.028c-0,-0 -0.008,0.108 -0.008,0.108c-0.004,0.068 0.02,0.134 0.067,0.183c0.047,0.049 0.112,0.075 0.18,0.073l0.108,-0.003c-0,0 -0.097,0.086 -0.097,0.086c-0.049,0.044 -0.078,0.105 -0.08,0.17c-0.003,0.065 0.021,0.128 0.066,0.175l0.088,0.093c-0,-0 -0.083,0.018 -0.083,0.018c-0.07,0.016 -0.129,0.062 -0.161,0.126c-0.033,0.064 -0.035,0.139 -0.006,0.205l0.026,0.058c-0,0 -0.01,-0.009 -0.01,-0.009c-0.058,-0.052 -0.139,-0.073 -0.215,-0.055c-0.076,0.018 -0.139,0.072 -0.168,0.144l-0.015,0.037c-0,0 -0.026,-0.047 -0.026,-0.047c-0.034,-0.065 -0.097,-0.11 -0.169,-0.123c-0.072,-0.013 -0.147,0.008 -0.201,0.057l-0.032,0.028c0,-0 0.022,-0.098 0.022,-0.098c0.017,-0.072 -0.001,-0.148 -0.049,-0.205c-0.047,-0.057 -0.118,-0.09 -0.192,-0.087l-0.139,0.004c-0,-0 0.1,-0.066 0.1,-0.066c0.066,-0.043 0.106,-0.115 0.108,-0.193c0.003,-0.078 -0.033,-0.153 -0.095,-0.2l-0.103,-0.076c0,-0 0.081,-0.003 0.081,-0.003c0.07,-0.002 0.136,-0.035 0.18,-0.089c0.044,-0.055 0.062,-0.127 0.049,-0.196l-0.016,-0.083c-0,-0 0.036,0.018 0.036,0.018c0.066,0.034 0.144,0.035 0.211,0.003c0.067,-0.031 0.115,-0.092 0.132,-0.164l0.003,-0.016Z" style="fill:#e5f20d;"/></g></g></svg>