<?xml version="1.0" encoding="UTF-8" standalone="no"?><!DOCTYPE svg PUBLIC "-//W3C//DTD SVG 1.1//EN" "http://www.w3.org/Graphics/SVG/1.1/DTD/svg11.dtd"><svg width="100%" height="100%" viewBox="0 0 36 36" version="1.1" xmlns="http://www.w3.org/2000/svg" xmlns:xlink="http://www.w3.org/1999/xlink" xml:space="preserve" xmlns:serif="http://www.serif.com/" style="fill-rule:evenodd;clip-rule:evenodd;stroke-linejoin:round;stroke-miterlimit:2;"><g><g><path d="M20.663,13.853c1.283,1.333 1.132,3.654 -0.337,5.18c-1.469,1.526 -3.704,1.683 -4.987,0.35c-1.283,-1.333 -1.132,-3.654 0.337,-5.18c1.469,-1.526 3.703,-1.683 4.987,-0.35Z" style="fill:#fff;"/><path d="M21.899,12.678c0.912,0.948 0.805,2.598 -0.24,3.683c-1.044,1.086 -2.633,1.197 -3.545,0.249c-0.913,-0.948 -0.805,-2.598 0.239,-3.683c1.045,-1.085 2.634,-1.197 3.546,-0.249Z" style="fill:#fff;"/><path d="M17.232,12.586c0.742,0.771 0.655,2.112 -0.194,2.994c-0.849,0.882 -2.141,0.972 -2.882,0.202c-0.742,-0.77 -0.655,-2.112 0.194,-2.994c0.849,-0.881 2.141,-0.972 2.882,-0.202Z" style="fill:#fff;"/><path d="M22.915,14.47c0.415,0.431 0.366,1.181 -0.109,1.675c-0.475,0.493 -1.198,0.544 -1.613,0.113c-0.415,-0.431 -0.366,-1.182 0.109,-1.675c0.475,-0.494 1.198,-0.544 1.613,-0.113Z" style="fill:#fff;"/><path d="M23.718,16.892c0.991,1.029 0.875,2.822 -0.26,4.001c-1.135,1.178 -2.861,1.3 -3.852,0.27c-0.991,-1.03 -0.874,-2.822 0.261,-4.001c1.134,-1.179 2.86,-1.3 3.851,-0.27Z" style="fill:#fff;"/><path d="M18.001,16.618c1.283,1.333 1.132,3.654 -0.337,5.18c-1.469,1.527 -3.704,1.683 -4.987,0.35c-1.283,-1.333 -1.132,-3.654 0.337,-5.18c1.469,-1.526 3.704,-1.683 4.987,-0.35Z" style="fill:#fff;"/><path d="M19.417,20.424c0.805,0.836 0.711,2.293 -0.211,3.251c-0.922,0.957 -2.324,1.056 -3.13,0.219c-0.805,-0.836 -0.71,-2.293 0.212,-3.251c0.922,-0.957 2.324,-1.056 3.129,-0.219Z" style="fill:#fff;"/><path d="M15.975,13.652c0.805,0.837 0.711,2.293 -0.211,3.251c-0.922,0.958 -2.325,1.056 -3.13,0.22c-0.805,-0.837 -0.71,-2.293 0.212,-3.251c0.922,-0.958 2.324,-1.056 3.129,-0.22Z" style="fill:#fff;"/><path d="M21.927,19c0.992,1.031 0.875,2.826 -0.261,4.006c-1.136,1.18 -2.864,1.301 -3.856,0.271c-0.992,-1.031 -0.875,-2.826 0.261,-4.006c1.136,-1.18 2.864,-1.302 3.856,-0.271Z" style="fill:#fff;"/></g><g><path d="M22.688,21.21l-2.734,-0.816l-0.281,1.919l-1.386,-1.31l-1.629,2.412l-0.061,-2.917l-1.87,0.337l0.803,-1.763l-2.735,-0.816l2.697,-0.986l-0.875,-1.711l1.882,0.22l-0.061,-2.917l1.728,2.307l1.329,-1.394l0.361,1.899l2.696,-0.986l-1.629,2.412l1.697,0.849l-1.659,0.954l1.727,2.307Z" style="fill:#f20d0d;"/><path d="M21.533,20.293l-2.022,-0.639l-0.146,1.359l-1.052,-0.961l-1.116,1.682l-0.134,-2.077l-1.355,0.2l0.532,-1.238l-2.022,-0.639l1.939,-0.645l-0.692,-1.236l1.381,0.197l-0.134,-2.078l1.333,1.679l0.928,-0.964l0.321,1.36l1.939,-0.645l-1.115,1.682l1.265,0.641l-1.182,0.643l1.332,1.679Z" style="fill:#f2af0d;"/><path d="M20.768,18.082l-1.296,0.416l0.438,0.739l-0.913,-0.101l0.055,1.256l-0.856,-0.998l-0.631,0.596l-0.19,-0.819l-1.297,0.416l0.768,-1.033l-0.828,-0.371l0.795,-0.406l-0.856,-0.999l1.33,0.361l0.12,-0.826l0.681,0.568l0.768,-1.033l0.054,1.256l0.902,-0.139l-0.373,0.756l1.329,0.361Z" style="fill:#e5f20d;"/><path d="M20.539,18.732l-1.228,-0.102l0.119,0.77l-0.732,-0.401l-0.377,1.068l-0.382,-1.131l-0.73,0.279l0.115,-0.75l-1.682,-0.007l1.446,-0.691l-0.57,-0.597l0.803,-0.063l-0.382,-1.131l0.995,0.762l0.485,-1.375l0.274,1.438l0.991,-0.597l-0.376,1.068l0.803,0.196l-0.567,0.503l0.995,0.761Z" style="fill:#fff;"/><path d="M20.539,18.732l-1.228,-0.102l0.119,0.77l-0.732,-0.401l-0.377,1.068l-0.382,-1.131l-0.73,0.279l0.115,-0.75l-1.682,-0.007l1.446,-0.691l-0.57,-0.597l0.803,-0.063l-0.382,-1.131l0.995,0.762l0.485,-1.375l0.274,1.438l0.991,-0.597l-0.376,1.068l0.803,0.196l-0.567,0.503l0.995,0.761Zm-0.796,-0.307l-0.412,-0.034c-0.074,-0.006 -0.146,0.022 -0.196,0.076c-0.05,0.054 -0.073,0.127 -0.061,0.2l0.044,0.289c0,-0 -0.305,-0.167 -0.305,-0.167c-0.062,-0.034 -0.135,-0.039 -0.201,-0.014c-0.065,0.025 -0.117,0.078 -0.14,0.144l-0.146,0.413c0,-0 -0.159,-0.473 -0.159,-0.473c-0.021,-0.061 -0.066,-0.112 -0.126,-0.14c-0.059,-0.028 -0.126,-0.03 -0.187,-0.007l-0.345,0.132c-0,-0 0.053,-0.342 0.053,-0.342c0.01,-0.069 -0.01,-0.139 -0.055,-0.193c-0.045,-0.053 -0.112,-0.083 -0.182,-0.084l-0.634,-0.002c-0,-0 0.501,-0.24 0.501,-0.24c0.069,-0.033 0.118,-0.098 0.132,-0.173c0.014,-0.076 -0.009,-0.154 -0.062,-0.209l-0.221,-0.232c-0,0 0.299,-0.023 0.299,-0.023c0.074,-0.006 0.141,-0.045 0.181,-0.107c0.041,-0.062 0.051,-0.139 0.027,-0.209l-0.129,-0.384c-0,-0 0.369,0.282 0.369,0.282c0.061,0.047 0.141,0.062 0.214,0.04c0.074,-0.022 0.133,-0.078 0.158,-0.15l0.189,-0.537c0,0 0.108,0.565 0.108,0.565c0.015,0.077 0.066,0.142 0.138,0.174c0.071,0.032 0.154,0.027 0.221,-0.013l0.42,-0.253c-0,0 -0.155,0.438 -0.155,0.438c-0.022,0.064 -0.017,0.134 0.015,0.194c0.033,0.06 0.089,0.103 0.155,0.119l0.358,0.087c-0,0 -0.224,0.199 -0.224,0.199c-0.054,0.047 -0.084,0.116 -0.081,0.188c0.002,0.072 0.037,0.139 0.094,0.182l0.345,0.264Z" style="fill:#e5f20d;"/></g></g></svg>