<?xml version="1.0" encoding="UTF-8" standalone="no"?><!DOCTYPE svg PUBLIC "-//W3C//DTD SVG 1.1//EN" "http://www.w3.org/Graphics/SVG/1.1/DTD/svg11.dtd"><svg width="100%" height="100%" viewBox="0 0 36 36" version="1.1" xmlns="http://www.w3.org/2000/svg" xmlns:xlink="http://www.w3.org/1999/xlink" xml:space="preserve" xmlns:serif="http://www.serif.com/" style="fill-rule:evenodd;clip-rule:evenodd;stroke-linejoin:round;stroke-miterlimit:2;"><g><g><path d="M26.254,16.729c0,3.236 -2.894,5.864 -6.46,5.864c-3.565,0 -6.46,-2.628 -6.46,-5.864c0,-3.236 2.895,-5.864 6.46,-5.864c3.566,-0 6.46,2.628 6.46,5.864Z" style="fill:#fff;"/><path d="M29.125,16.861c-0,2.301 -2.058,4.17 -4.592,4.17c-2.535,-0 -4.592,-1.869 -4.592,-4.17c-0,-2.301 2.057,-4.17 4.592,-4.17c2.534,0 4.592,1.869 4.592,4.17Z" style="fill:#fff;"/><path d="M23.571,10.865c0,1.871 -1.672,3.39 -3.732,3.39c-2.06,-0 -3.733,-1.519 -3.733,-3.39c0,-1.871 1.673,-3.39 3.733,-3.39c2.06,-0 3.732,1.519 3.732,3.39Z" style="fill:#fff;"/><path d="M28.266,20.318c0,1.046 -0.936,1.896 -2.089,1.896c-1.153,-0 -2.089,-0.85 -2.089,-1.896c-0,-1.046 0.936,-1.896 2.089,-1.896c1.153,-0 2.089,0.85 2.089,1.896Z" style="fill:#fff;"/><path d="M26.412,24.272c-0,2.5 -2.236,4.53 -4.99,4.53c-2.754,-0 -4.989,-2.03 -4.989,-4.53c-0,-2.5 2.235,-4.53 4.989,-4.53c2.754,-0 4.99,2.03 4.99,4.53Z" style="fill:#fff;"/><path d="M19.795,16.729c0,3.236 -2.894,5.864 -6.46,5.864c-3.565,0 -6.46,-2.628 -6.46,-5.864c-0,-3.236 2.895,-5.864 6.46,-5.864c3.566,-0 6.46,2.628 6.46,5.864Z" style="fill:#fff;"/><path d="M17.066,23.135c-0,2.032 -1.816,3.681 -4.053,3.681c-2.237,0 -4.053,-1.649 -4.053,-3.681c-0,-2.032 1.816,-3.681 4.053,-3.681c2.237,0 4.053,1.649 4.053,3.681Z" style="fill:#fff;"/><path d="M20.8,10.574c0,2.032 -1.816,3.681 -4.053,3.681c-2.236,-0 -4.052,-1.649 -4.052,-3.681c-0,-2.032 1.816,-3.681 4.052,-3.681c2.237,0 4.053,1.649 4.053,3.681Z" style="fill:#fff;"/><path d="M21.775,24.573c-0,2.502 -2.238,4.534 -4.995,4.534c-2.757,0 -4.995,-2.032 -4.995,-4.534c0,-2.502 2.238,-4.534 4.995,-4.534c2.757,0 4.995,2.032 4.995,4.534Z" style="fill:#fff;"/></g></g></svg>