<?xml version="1.0" encoding="UTF-8" standalone="no"?><!DOCTYPE svg PUBLIC "-//W3C//DTD SVG 1.1//EN" "http://www.w3.org/Graphics/SVG/1.1/DTD/svg11.dtd"><svg width="100%" height="100%" viewBox="0 0 260 260" version="1.1" xmlns="http://www.w3.org/2000/svg" xmlns:xlink="http://www.w3.org/1999/xlink" xml:space="preserve" xmlns:serif="http://www.serif.com/" style="fill-rule:evenodd;clip-rule:evenodd;stroke-linejoin:round;stroke-miterlimit:2;"><g><path d="M129.5,3.895l0,-3.895l1,0l0,3.895c1.811,0.007 3.612,0.052 5.413,0.135l0.197,-3.887l0.999,0.051l-0.198,3.886c2.098,0.114 4.183,0.279 6.253,0.494l0.421,-3.863l0.994,0.108l-0.421,3.862c1.882,0.211 3.752,0.463 5.612,0.756l0.623,-3.829l0.987,0.161l-0.623,3.827c1.84,0.306 3.667,0.651 5.475,1.034l0.821,-3.785l0.977,0.212l-0.82,3.785c1.662,0.366 3.312,0.765 4.952,1.197l1.002,-3.739l0.965,0.259l-1.001,3.738c1.746,0.475 3.476,0.986 5.193,1.534l1.191,-3.682l0.951,0.308l-1.19,3.682c1.991,0.653 3.959,1.354 5.91,2.103l1.402,-3.61l0.932,0.362l-1.402,3.611c1.76,0.693 3.501,1.424 5.221,2.192l1.592,-3.536l0.912,0.411l-1.593,3.537c1.695,0.773 3.369,1.583 5.017,2.425l1.777,-3.455l0.889,0.458l-1.778,3.455c1.506,0.785 2.994,1.599 4.469,2.445l1.946,-3.37l0.866,0.5l-1.947,3.371c1.562,0.913 3.102,1.858 4.615,2.832l2.119,-3.274l0.84,0.543l-2.12,3.275c1.751,1.146 3.473,2.335 5.16,3.564l2.309,-3.153l0.807,0.591l-2.309,3.153c1.518,1.124 3.011,2.281 4.473,3.469l2.477,-3.032l0.774,0.633l-2.477,3.031c1.434,1.183 2.841,2.396 4.219,3.638l2.633,-2.901l0.74,0.672l-2.633,2.901c1.251,1.146 2.48,2.317 3.686,3.514l2.771,-2.771l0.707,0.707l-2.771,2.771c1.271,1.281 2.515,2.59 3.73,3.923l2.908,-2.626l0.67,0.742l-2.908,2.626c1.396,1.556 2.753,3.147 4.07,4.77l3.051,-2.451l0.627,0.779l-3.051,2.451c1.177,1.475 2.322,2.977 3.432,4.502l3.171,-2.284l0.585,0.812l-3.171,2.283c1.08,1.51 2.129,3.044 3.141,4.6l3.28,-2.111l0.542,0.841l-3.279,2.11c0.915,1.43 1.801,2.88 2.658,4.346l3.371,-1.947l0.5,0.866l-3.37,1.946c0.896,1.563 1.761,3.147 2.593,4.753l3.459,-1.769l0.455,0.89l-3.458,1.769c0.945,1.861 1.845,3.748 2.7,5.662l3.548,-1.564l0.403,0.915l-3.547,1.564c0.754,1.726 1.471,3.472 2.149,5.238l3.622,-1.372l0.354,0.935l-3.621,1.372c0.651,1.735 1.265,3.488 1.841,5.26l3.685,-1.181l0.305,0.952l-3.685,1.181c0.511,1.615 0.99,3.245 1.437,4.888l3.738,-1.001l0.259,0.965l-3.739,1.002c0.459,1.741 0.881,3.497 1.266,5.266l3.787,-0.811l0.209,0.978l-3.788,0.811c0.427,2.039 0.805,4.097 1.131,6.17l3.834,-0.592l0.152,0.988l-3.834,0.592c0.278,1.859 0.515,3.732 0.71,5.617l3.867,-0.389l0.1,0.995l-3.867,0.389c0.176,1.84 0.313,3.693 0.409,5.557l3.887,-0.188l0.048,0.999l-3.887,0.188c0.074,1.691 0.114,3.388 0.12,5.092l3.895,0l0,1l-3.895,0c-0.007,1.811 -0.052,3.612 -0.135,5.413l3.887,0.197l-0.051,0.999l-3.886,-0.198c-0.114,2.098 -0.279,4.183 -0.494,6.253l3.863,0.421l-0.108,0.994l-3.862,-0.421c-0.211,1.882 -0.463,3.752 -0.756,5.612l3.829,0.623l-0.161,0.987l-3.827,-0.623c-0.306,1.84 -0.651,3.667 -1.034,5.475l3.785,0.821l-0.212,0.977l-3.785,-0.82c-0.366,1.662 -0.765,3.312 -1.197,4.952l3.739,1.002l-0.259,0.965l-3.738,-1.001c-0.475,1.746 -0.986,3.476 -1.534,5.193l3.682,1.191l-0.308,0.951l-3.682,-1.19c-0.653,1.991 -1.354,3.959 -2.103,5.91l3.61,1.402l-0.362,0.932l-3.611,-1.402c-0.693,1.76 -1.424,3.501 -2.192,5.221l3.536,1.592l-0.411,0.912l-3.537,-1.593c-0.773,1.695 -1.583,3.369 -2.425,5.017l3.455,1.777l-0.458,0.889l-3.455,-1.778c-0.785,1.506 -1.599,2.994 -2.445,4.469l3.37,1.946l-0.5,0.866l-3.371,-1.947c-0.913,1.562 -1.858,3.102 -2.832,4.615l3.274,2.119l-0.543,0.84l-3.275,-2.12c-1.146,1.751 -2.335,3.473 -3.564,5.16l3.153,2.309l-0.591,0.807l-3.153,-2.309c-1.124,1.518 -2.281,3.011 -3.469,4.473l3.032,2.477l-0.633,0.774l-3.031,-2.477c-1.183,1.434 -2.396,2.841 -3.638,4.219l2.901,2.633l-0.672,0.74l-2.901,-2.633c-1.146,1.251 -2.317,2.48 -3.514,3.686l2.771,2.771l-0.707,0.707l-2.771,-2.771c-1.281,1.271 -2.59,2.515 -3.923,3.73l2.626,2.908l-0.742,0.67l-2.626,-2.908c-1.556,1.396 -3.147,2.753 -4.77,4.07l2.451,3.051l-0.779,0.627l-2.451,-3.051c-1.475,1.177 -2.977,2.322 -4.502,3.432l2.284,3.171l-0.812,0.585l-2.283,-3.171c-1.51,1.08 -3.044,2.129 -4.6,3.141l2.111,3.28l-0.841,0.542l-2.11,-3.279c-1.43,0.915 -2.88,1.801 -4.346,2.658l1.947,3.371l-0.866,0.5l-1.946,-3.37c-1.563,0.896 -3.147,1.761 -4.753,2.593l1.769,3.459l-0.89,0.455l-1.769,-3.458c-1.861,0.945 -3.748,1.845 -5.662,2.7l1.564,3.548l-0.915,0.403l-1.564,-3.547c-1.726,0.754 -3.472,1.471 -5.238,2.149l1.372,3.622l-0.935,0.354l-1.372,-3.621c-1.735,0.651 -3.488,1.265 -5.26,1.841l1.181,3.685l-0.952,0.305l-1.181,-3.685c-1.615,0.511 -3.245,0.99 -4.888,1.437l1.001,3.738l-0.965,0.259l-1.002,-3.739c-1.741,0.459 -3.497,0.881 -5.266,1.266l0.811,3.787l-0.978,0.209l-0.811,-3.788c-2.039,0.427 -4.097,0.805 -6.17,1.131l0.592,3.834l-0.988,0.152l-0.592,-3.834c-1.859,0.278 -3.732,0.515 -5.617,0.71l0.389,3.867l-0.995,0.1l-0.389,-3.867c-1.84,0.176 -3.693,0.313 -5.557,0.409l0.188,3.887l-0.999,0.048l-0.188,-3.887c-1.691,0.074 -3.388,0.114 -5.092,0.12l0,3.895l-1,0l0,-3.895c-1.811,-0.007 -3.612,-0.052 -5.413,-0.135l-0.197,3.887l-0.999,-0.051l0.198,-3.886c-2.098,-0.114 -4.183,-0.279 -6.253,-0.494l-0.421,3.863l-0.994,-0.108l0.421,-3.862c-1.882,-0.211 -3.752,-0.463 -5.612,-0.756l-0.623,3.829l-0.987,-0.161l0.623,-3.827c-1.84,-0.306 -3.667,-0.651 -5.475,-1.034l-0.821,3.785l-0.977,-0.212l0.82,-3.785c-1.662,-0.366 -3.312,-0.765 -4.952,-1.197l-1.002,3.739l-0.965,-0.259l1.001,-3.738c-1.746,-0.475 -3.476,-0.986 -5.193,-1.534l-1.191,3.682l-0.951,-0.308l1.19,-3.682c-1.991,-0.653 -3.959,-1.354 -5.91,-2.103l-1.402,3.61l-0.932,-0.362l1.402,-3.611c-1.76,-0.693 -3.501,-1.424 -5.221,-2.192l-1.592,3.536l-0.912,-0.411l1.593,-3.537c-1.695,-0.773 -3.369,-1.583 -5.017,-2.425l-1.777,3.455l-0.889,-0.458l1.778,-3.455c-1.506,-0.785 -2.994,-1.599 -4.469,-2.445l-1.946,3.37l-0.866,-0.5l1.947,-3.371c-1.562,-0.913 -3.102,-1.858 -4.615,-2.832l-2.119,3.274l-0.84,-0.543l2.12,-3.275c-1.751,-1.146 -3.473,-2.335 -5.16,-3.564l-2.309,3.153l-0.807,-0.591l2.309,-3.153c-1.518,-1.124 -3.011,-2.281 -4.473,-3.469l-2.477,3.032l-0.774,-0.633l2.477,-3.031c-1.434,-1.183 -2.841,-2.396 -4.219,-3.638l-2.633,2.901l-0.74,-0.672l2.633,-2.901c-1.251,-1.146 -2.48,-2.317 -3.686,-3.514l-2.771,2.771l-0.707,-0.707l2.771,-2.771c-1.271,-1.281 -2.515,-2.59 -3.73,-3.923l-2.908,2.626l-0.67,-0.742l2.908,-2.626c-1.396,-1.556 -2.753,-3.147 -4.07,-4.77l-3.051,2.451l-0.627,-0.779l3.051,-2.451c-1.177,-1.475 -2.322,-2.977 -3.432,-4.502l-3.171,2.284l-0.585,-0.812l3.171,-2.283c-1.08,-1.51 -2.129,-3.044 -3.141,-4.6l-3.28,2.111l-0.542,-0.841l3.279,-2.11c-0.915,-1.43 -1.801,-2.88 -2.658,-4.346l-3.371,1.947l-0.5,-0.866l3.37,-1.946c-0.896,-1.563 -1.761,-3.147 -2.593,-4.753l-3.459,1.769l-0.455,-0.89l3.458,-1.769c-0.945,-1.861 -1.845,-3.748 -2.7,-5.662l-3.548,1.564l-0.403,-0.915l3.547,-1.564c-0.754,-1.726 -1.471,-3.472 -2.149,-5.238l-3.622,1.372l-0.354,-0.935l3.621,-1.372c-0.651,-1.735 -1.265,-3.488 -1.841,-5.26l-3.685,1.181l-0.305,-0.952l3.685,-1.181c-0.511,-1.615 -0.99,-3.245 -1.437,-4.888l-3.738,1.001l-0.259,-0.965l3.739,-1.002c-0.459,-1.741 -0.881,-3.497 -1.266,-5.266l-3.787,0.811l-0.209,-0.978l3.788,-0.811c-0.427,-2.039 -0.805,-4.097 -1.131,-6.17l-3.834,0.592l-0.152,-0.988l3.834,-0.592c-0.278,-1.859 -0.515,-3.732 -0.71,-5.617l-3.867,0.389l-0.1,-0.995l3.867,-0.389c-0.176,-1.84 -0.313,-3.693 -0.409,-5.557l-3.887,0.188l-0.048,-0.999l3.887,-0.188c-0.074,-1.691 -0.114,-3.388 -0.12,-5.092l-3.895,0l0,-1l3.895,0c0.007,-1.811 0.052,-3.612 0.135,-5.413l-3.887,-0.197l0.051,-0.999l3.886,0.198c0.114,-2.098 0.279,-4.183 0.494,-6.253l-3.863,-0.421l0.108,-0.994l3.862,0.421c0.211,-1.882 0.463,-3.752 0.756,-5.612l-3.829,-0.623l0.161,-0.987l3.827,0.623c0.306,-1.84 0.651,-3.667 1.034,-5.475l-3.785,-0.821l0.212,-0.977l3.785,0.82c0.366,-1.662 0.765,-3.312 1.197,-4.952l-3.739,-1.002l0.259,-0.965l3.738,1.001c0.475,-1.746 0.986,-3.476 1.534,-5.193l-3.682,-1.191l0.308,-0.951l3.682,1.19c0.653,-1.991 1.354,-3.959 2.103,-5.91l-3.61,-1.402l0.362,-0.932l3.611,1.402c0.693,-1.76 1.424,-3.501 2.192,-5.221l-3.536,-1.592l0.411,-0.912l3.537,1.593c0.773,-1.695 1.583,-3.369 2.425,-5.017l-3.455,-1.777l0.458,-0.889l3.455,1.778c0.785,-1.506 1.599,-2.994 2.445,-4.469l-3.37,-1.946l0.5,-0.866l3.371,1.947c0.913,-1.562 1.858,-3.102 2.832,-4.615l-3.274,-2.119l0.543,-0.84l3.275,2.12c1.146,-1.751 2.335,-3.473 3.564,-5.16l-3.153,-2.309l0.591,-0.807l3.153,2.309c1.124,-1.518 2.281,-3.011 3.469,-4.473l-3.032,-2.477l0.633,-0.774l3.031,2.477c1.183,-1.434 2.396,-2.841 3.638,-4.219l-2.901,-2.633l0.672,-0.74l2.901,2.633c1.146,-1.251 2.317,-2.48 3.514,-3.686l-2.771,-2.771l0.707,-0.707l2.771,2.771c1.281,-1.271 2.59,-2.515 3.923,-3.73l-2.626,-2.908l0.742,-0.67l2.626,2.908c1.556,-1.396 3.147,-2.753 4.77,-4.07l-2.451,-3.051l0.779,-0.627l2.451,3.051c1.475,-1.177 2.977,-2.322 4.502,-3.432l-2.284,-3.171l0.812,-0.585l2.283,3.171c1.51,-1.08 3.044,-2.129 4.6,-3.141l-2.111,-3.28l0.841,-0.542l2.11,3.279c1.43,-0.915 2.88,-1.801 4.346,-2.658l-1.947,-3.371l0.866,-0.5l1.946,3.37c1.563,-0.896 3.147,-1.761 4.753,-2.593l-1.769,-3.459l0.89,-0.455l1.769,3.458c1.861,-0.945 3.748,-1.845 5.662,-2.7l-1.564,-3.548l0.915,-0.403l1.564,3.547c1.726,-0.754 3.472,-1.471 5.238,-2.149l-1.372,-3.622l0.935,-0.354l1.372,3.621c1.735,-0.651 3.488,-1.265 5.26,-1.841l-1.181,-3.685l0.952,-0.305l1.181,3.685c1.615,-0.511 3.245,-0.99 4.888,-1.437l-1.001,-3.738l0.965,-0.259l1.002,3.739c1.741,-0.459 3.497,-0.881 5.266,-1.266l-0.811,-3.787l0.978,-0.209l0.811,3.788c2.039,-0.427 4.097,-0.805 6.17,-1.131l-0.592,-3.834l0.988,-0.152l0.592,3.834c1.859,-0.278 3.732,-0.515 5.617,-0.71l-0.389,-3.867l0.995,-0.1l0.389,3.867c1.84,-0.176 3.693,-0.313 5.557,-0.409l-0.188,-3.887l0.999,-0.048l0.188,3.887c1.691,-0.074 3.388,-0.114 5.092,-0.12Zm0.5,2.689c68.115,-0 123.416,55.301 123.416,123.416c-0,68.115 -55.301,123.416 -123.416,123.416c-68.115,-0 -123.416,-55.301 -123.416,-123.416c-0,-68.115 55.301,-123.416 123.416,-123.416Z" style="fill:#1a1918;"/><g><path d="M130,0c71.749,0 130,58.251 130,130c0,71.749 -58.251,130 -130,130c-71.749,0 -130,-58.251 -130,-130c0,-71.749 58.251,-130 130,-130Zm0,1c71.197,0 129,57.803 129,129c0,71.197 -57.803,129 -129,129c-71.197,0 -129,-57.803 -129,-129c0,-71.197 57.803,-129 129,-129Z" style="fill:#1a1918;"/><path d="M129.5,126.202l0,-126.202l1,0l0,126.202l29.428,-109.828l0.966,0.259l-29.428,109.828l56.851,-98.469l0.866,0.5l-56.851,98.469l80.399,-80.4l0.708,0.708l-80.4,80.399l98.469,-56.851l0.5,0.866l-98.469,56.851l109.828,-29.428l0.259,0.966l-109.828,29.428l126.202,0l0,1l-126.202,0l109.828,29.428l-0.259,0.966l-109.828,-29.428l98.469,56.851l-0.5,0.866l-98.469,-56.851l80.4,80.399l-0.708,0.708l-80.399,-80.4l56.851,98.469l-0.866,0.5l-56.851,-98.469l29.428,109.828l-0.966,0.259l-29.428,-109.828l-0,126.202l-1,0l-0,-126.202l-29.428,109.828l-0.966,-0.259l29.428,-109.828l-56.851,98.469l-0.866,-0.5l56.851,-98.469l-80.399,80.4l-0.708,-0.708l80.4,-80.399l-98.469,56.851l-0.5,-0.866l98.469,-56.851l-109.828,29.428l-0.259,-0.966l109.828,-29.428l-126.202,-0l-0,-1l126.202,-0l-109.828,-29.428l0.259,-0.966l109.828,29.428l-98.469,-56.851l0.5,-0.866l98.469,56.851l-80.4,-80.399l0.708,-0.708l80.399,80.4l-56.851,-98.469l0.866,-0.5l56.851,98.469l-29.428,-109.828l0.966,-0.259l29.428,109.828Zm-0.466,0.193l-0.9,0.373l-0.773,0.593l-0.593,0.773l-0.373,0.9l-0.127,0.966l0.127,0.966l0.373,0.9l0.593,0.773l0.773,0.593l0.9,0.373l0.966,0.127l0.966,-0.127l0.9,-0.373l0.773,-0.593l0.593,-0.773l0.373,-0.9l0.127,-0.966l-0.127,-0.966l-0.373,-0.9l-0.593,-0.773l-0.773,-0.593l-0.9,-0.373l-0.966,-0.127l-0.966,0.127Z" style="fill:#1a1918;"/><path d="M130,12.235c64.996,0 117.765,52.769 117.765,117.765c0,64.996 -52.769,117.765 -117.765,117.765c-64.996,0 -117.765,-52.769 -117.765,-117.765c0,-64.996 52.769,-117.765 117.765,-117.765Zm0,1c64.444,0 116.765,52.321 116.765,116.765c0,64.444 -52.321,116.765 -116.765,116.765c-64.444,0 -116.765,-52.321 -116.765,-116.765c0,-64.444 52.321,-116.765 116.765,-116.765Z" style="fill:#1a1918;"/><path d="M130,25c57.951,0 105,47.049 105,105c0,57.951 -47.049,105 -105,105c-57.951,0 -105,-47.049 -105,-105c0,-57.951 47.049,-105 105,-105Zm0,1c57.399,0 104,46.601 104,104c0,57.399 -46.601,104 -104,104c-57.399,0 -104,-46.601 -104,-104c0,-57.399 46.601,-104 104,-104Z" style="fill:#1a1918;"/><path d="M130,37.4c51.107,0 92.6,41.493 92.6,92.6c-0,51.107 -41.493,92.6 -92.6,92.6c-51.107,-0 -92.6,-41.493 -92.6,-92.6c0,-51.107 41.493,-92.6 92.6,-92.6Zm0,1c50.555,0 91.6,41.045 91.6,91.6c-0,50.555 -41.045,91.6 -91.6,91.6c-50.555,-0 -91.6,-41.045 -91.6,-91.6c0,-50.555 41.045,-91.6 91.6,-91.6Z" style="fill:#1a1918;"/><path d="M130,50c44.153,0 80,35.847 80,80c0,44.153 -35.847,80 -80,80c-44.153,0 -80,-35.847 -80,-80c0,-44.153 35.847,-80 80,-80Zm0,1c43.601,0 79,35.399 79,79c0,43.601 -35.399,79 -79,79c-43.601,0 -79,-35.399 -79,-79c0,-43.601 35.399,-79 79,-79Z" style="fill:#1a1918;"/><path d="M130,62.184c37.429,-0 67.816,30.387 67.816,67.816c0,37.429 -30.387,67.816 -67.816,67.816c-37.429,0 -67.816,-30.387 -67.816,-67.816c0,-37.429 30.387,-67.816 67.816,-67.816Zm0,1c36.877,0 66.816,29.939 66.816,66.816c0,36.877 -29.939,66.816 -66.816,66.816c-36.877,0 -66.816,-29.939 -66.816,-66.816c0,-36.877 29.939,-66.816 66.816,-66.816Z" style="fill:#1a1918;"/><path d="M130,75c30.355,0 55,24.645 55,55c0,30.355 -24.645,55 -55,55c-30.355,0 -55,-24.645 -55,-55c0,-30.355 24.645,-55 55,-55Zm0,1c29.803,0 54,24.197 54,54c0,29.803 -24.197,54 -54,54c-29.803,0 -54,-24.197 -54,-54c0,-29.803 24.197,-54 54,-54Z" style="fill:#1a1918;"/><path d="M130,87.5c23.456,0 42.5,19.044 42.5,42.5c0,23.456 -19.044,42.5 -42.5,42.5c-23.456,0 -42.5,-19.044 -42.5,-42.5c0,-23.456 19.044,-42.5 42.5,-42.5Zm0,1c22.904,0 41.5,18.596 41.5,41.5c0,22.904 -18.596,41.5 -41.5,41.5c-22.904,0 -41.5,-18.596 -41.5,-41.5c0,-22.904 18.596,-41.5 41.5,-41.5Z" style="fill:#1a1918;"/><path d="M130,101.25c15.868,0 28.75,12.882 28.75,28.75c0,15.868 -12.882,28.75 -28.75,28.75c-15.868,0 -28.75,-12.882 -28.75,-28.75c0,-15.868 12.882,-28.75 28.75,-28.75Zm0,1c15.316,0 27.75,12.434 27.75,27.75c0,15.316 -12.434,27.75 -27.75,27.75c-15.316,0 -27.75,-12.434 -27.75,-27.75c0,-15.316 12.434,-27.75 27.75,-27.75Z" style="fill:#1a1918;"/><path d="M130,114.375c8.624,0 15.625,7.001 15.625,15.625c0,8.624 -7.001,15.625 -15.625,15.625c-8.624,0 -15.625,-7.001 -15.625,-15.625c0,-8.624 7.001,-15.625 15.625,-15.625Zm0,1c8.072,0 14.625,6.553 14.625,14.625c0,8.072 -6.553,14.625 -14.625,14.625c-8.072,0 -14.625,-6.553 -14.625,-14.625c0,-8.072 6.553,-14.625 14.625,-14.625Z" style="fill:#1a1918;"/></g></g></svg>