<?xml version="1.0" encoding="UTF-8" standalone="no"?><!DOCTYPE svg PUBLIC "-//W3C//DTD SVG 1.1//EN" "http://www.w3.org/Graphics/SVG/1.1/DTD/svg11.dtd"><svg width="100%" height="100%" viewBox="0 0 108 36" version="1.1" xmlns="http://www.w3.org/2000/svg" xmlns:xlink="http://www.w3.org/1999/xlink" xml:space="preserve" xmlns:serif="http://www.serif.com/" style="fill-rule:evenodd;clip-rule:evenodd;stroke-linejoin:round;stroke-miterlimit:2;"><g><path d="M18,36c-9.934,0 -18,-8.066 -18,-18c0,-9.934 8.066,-18 18,-18l72,0l0.116,0c9.881,0.063 17.884,8.104 17.884,18c0,9.934 -8.066,18 -18,18l-72,0Z" style="fill:#0d79f2;fill-opacity:0.5;"/><path d="M13.13,14.601l-6.38,3.361l6.38,3.361l7.12,2.239l18,2.8l18,1.374l9,0l27,-1.374l6.543,-2.979l2.457,-5.421l-2.457,-5.192l-6.543,-3.209l-27,-1.297l-9,0l-18,1.297l-18,2.8l-7.12,2.24Z" style="fill:#737373;"/><path d="M13.5,15.862l-4.135,2.066l4.135,2.134l6.75,2.1l4.5,1.108l14.78,2.186l17.238,1.231l8.618,0l25.856,-1.231l6.266,-2.67l2.353,-4.858l-2.353,-4.653l-6.266,-2.876l-25.856,-1.162l-8.618,0l-17.238,1.162l-14.78,2.265l-4.5,1.098l-6.75,2.1Z" style="fill:#999;"/><path d="M35.478,23.625l-3.364,-1.875l0,-0.938l-2.864,-0.937l0,-3.75l2.864,-0.938l0,-0.937l3.364,-1.875l2.363,0l2.864,0.937l2.863,0l2.864,-0.921l5.243,-0.016l0,0.016c0.166,-0.011 0.332,-0.016 0.5,-0.016c2.471,0 4.629,1.132 5.785,2.812l5.04,-0l1.125,1.125l2.25,-0l1.125,-1.125l21.41,-0l3.34,1.407l0,2.812l-3.34,1.406l-21.41,-0l-1.125,-1.125l-2.25,-0l-1.125,1.125l-5.04,-0c-1.156,1.681 -3.314,2.813 -5.785,2.813c-0.168,-0 -0.334,-0.005 -0.5,-0.016l0,0.016l-5.243,-0.016l-2.864,-0.922l-2.863,-0l-2.864,0.922l-2.363,0.016Z" style="fill:#666;"/><path d="M28.688,19.43l-1.688,0.258l-1.687,-0.467l0,-2.442l1.687,-0.466l1.688,0.257l0,2.86Z" style="fill:#404040;"/><path d="M25.313,17.719l-2.25,0.147l0,0.267l2.25,0.148l0.562,0l0,-0.562l-0.562,0Z"/><path d="M33.75,19.43l-1.687,0.258l-1.688,-0.467l0,-2.442l1.688,-0.466l1.687,0.257l0,2.86Z" style="fill:#404040;"/><path d="M30.375,17.719l-2.25,0.147l0,0.267l2.25,0.148l0.563,0l0,-0.562l-0.563,0Z"/><path d="M39.754,21.375c-2.207,0 -3.998,-1.512 -3.998,-3.375c0,-1.863 1.791,-3.375 3.998,-3.375l7.997,0c2.207,0 3.999,1.512 3.999,3.375c0,1.863 -1.792,3.375 -3.999,3.375l-7.997,0Z" style="fill:#ccc;"/><rect x="44.466" y="16.875" width="7.284" height="2.25" style="fill:#404040;"/><path d="M38.975,20.25l-2.25,-1.125l0,-2.25l2.25,-1.125l4.5,0l2.25,1.125l0,2.25l-2.25,1.125l-4.5,0Z" style="fill:#8c8c8c;"/><path d="M73.494,13.5l0,9l-4.5,-2.25l0,-4.5l4.5,-2.25Z" style="fill:#bfbfbf;"/><path d="M77.994,13.5l0,9l4.5,-2.25l0,-4.5l-4.5,-2.25Z" style="fill:#bfbfbf;"/><rect x="73.494" y="13.5" width="4.5" height="9" style="fill:#bfbfbf;"/><path d="M83.619,19.43l1.688,0.258l1.687,-0.467l0,-2.442l-1.687,-0.466l-1.688,0.257l0,2.86Z" style="fill:#404040;"/><path d="M86.994,17.719l2.25,0.147l0,0.267l-2.25,0.148l-0.562,0l0,-0.562l0.562,0Z"/><path d="M78.557,19.43l1.687,0.258l1.688,-0.467l0,-2.442l-1.688,-0.466l-1.687,0.257l0,2.86Z" style="fill:#404040;"/><path d="M81.932,17.719l2.25,0.147l0,0.267l-2.25,0.148l-0.563,0l0,-0.562l0.563,0Z"/><path d="M72.862,19.43l-1.688,0.258l-1.687,-0.467l0,-2.442l1.687,-0.466l1.688,0.257l0,2.86Z" style="fill:#404040;"/><path d="M69.75,17.719l-2.25,0.147l0,0.267l2.25,0.148l0.563,0l-0.001,-0.562l-0.562,0Z"/><path d="M74.619,19.516c-0.651,-0.197 -1.125,-0.801 -1.125,-1.516c0,-0.715 0.474,-1.319 1.125,-1.516l2.25,0c0.651,0.197 1.125,0.801 1.125,1.516c0,0.715 -0.474,1.319 -1.125,1.516l-2.25,0Z" style="fill:#666;"/><g><path d="M55.997,20.25c-0.916,-0.292 -1.584,-1.19 -1.584,-2.25c0,-1.06 0.668,-1.958 1.584,-2.25l3.169,0c0.916,0.292 1.584,1.19 1.584,2.25c0,1.06 -0.668,1.958 -1.584,2.25l-3.169,0Z" style="fill:#404040;"/><path d="M56.445,19.516c-0.657,-0.197 -1.136,-0.801 -1.136,-1.516c0,-0.715 0.479,-1.319 1.136,-1.516l2.273,0c0.657,0.197 1.137,0.801 1.137,1.516c0,0.715 -0.48,1.319 -1.137,1.516l-2.273,0Z"/></g><g><path d="M48.834,20.25c-0.916,-0.292 -1.584,-1.19 -1.584,-2.25c0,-1.06 0.668,-1.958 1.584,-2.25l3.169,0c0.916,0.292 1.584,1.19 1.584,2.25c0,1.06 -0.668,1.958 -1.584,2.25l-3.169,0Z" style="fill:#404040;"/><path d="M49.282,19.516c-0.657,-0.197 -1.137,-0.801 -1.137,-1.516c-0,-0.715 0.48,-1.319 1.137,-1.516l2.273,0c0.657,0.197 1.136,0.801 1.136,1.516c-0,0.715 -0.479,1.319 -1.136,1.516l-2.273,0Z"/></g><path d="M93.824,18c0,-1.242 1.008,-2.25 2.25,-2.25c1.242,0 2.25,1.008 2.25,2.25c0,1.242 -1.008,2.25 -2.25,2.25c-1.242,0 -2.25,-1.008 -2.25,-2.25Z" style="fill:#404040;"/><path d="M63,22.5c0,-1.242 1.008,-2.25 2.25,-2.25c1.242,0 2.25,1.008 2.25,2.25c0,1.242 -1.008,2.25 -2.25,2.25c-1.242,0 -2.25,-1.008 -2.25,-2.25Z" style="fill:#404040;"/><path d="M63,13.5c0,-1.242 1.008,-2.25 2.25,-2.25c1.242,0 2.25,1.008 2.25,2.25c0,1.242 -1.008,2.25 -2.25,2.25c-1.242,0 -2.25,-1.008 -2.25,-2.25Z" style="fill:#404040;"/></g></svg>