<?xml version="1.0" encoding="UTF-8" standalone="no"?><!DOCTYPE svg PUBLIC "-//W3C//DTD SVG 1.1//EN" "http://www.w3.org/Graphics/SVG/1.1/DTD/svg11.dtd"><svg width="100%" height="100%" viewBox="0 0 36 36" version="1.1" xmlns="http://www.w3.org/2000/svg" xmlns:xlink="http://www.w3.org/1999/xlink" xml:space="preserve" xmlns:serif="http://www.serif.com/" style="fill-rule:evenodd;clip-rule:evenodd;stroke-linejoin:round;stroke-miterlimit:2;"><g><circle cx="18" cy="18" r="18" style="fill:#0d79f2;fill-opacity:0.5;"/><path d="M10.866,16.672l-1.426,2.031l1.426,2.031l2.854,1.015c4.332,0.179 8.621,-0.075 12.84,-1.015l0,-4.062c-4.25,-0.726 -8.534,-1.01 -12.84,-1.016l-2.854,1.016Z" style="fill:#999;"/><path d="M18,16.191l0,5.077c1.038,0 2.554,-0.106 3.805,-0.883l0,-3.356c-1.26,-0.599 -2.767,-0.838 -3.805,-0.838Z" style="fill:#404040;"/><path d="M11.374,17.029l-1.326,1.678l1.326,1.678l3.012,0.883l3.614,0l0,-5.077l-3.614,0l-3.012,0.838Z" style="fill:#737373;"/><path d="M15.147,16.698l-0.952,1.016l0,2.031l0.952,1.015l1.902,0l0.475,-0.507l0.476,0l0,-3.047l-0.476,0l-0.475,-0.508l-1.902,0Z" style="fill:#bfbfbf;"/><rect x="14.547" y="18.856" width="0.243" height="0.762" style="fill:#404040;"/><rect x="14.547" y="17.841" width="0.243" height="0.761" style="fill:#404040;"/><rect x="16.335" y="20.248" width="0.713" height="0.259" style="fill:#404040;"/><rect x="15.384" y="20.248" width="0.713" height="0.259" style="fill:#404040;"/><rect x="16.335" y="16.952" width="0.713" height="0.259" style="fill:#404040;"/><rect x="15.384" y="16.952" width="0.713" height="0.259" style="fill:#404040;"/><path d="M14.674,19.932l0.42,0.448l0.171,-0.183l-0.419,-0.448l-0.172,0.183Z" style="fill:#404040;"/><path d="M14.674,17.531l0.42,-0.448l0.171,0.183l-0.419,0.448l-0.172,-0.183Z" style="fill:#404040;"/><rect x="22.756" y="18.628" width="2.853" height="0.203" style="fill:#262626;"/><rect x="22.756" y="19.136" width="2.853" height="0.203" style="fill:#262626;"/><rect x="22.756" y="18.12" width="2.853" height="0.203" style="fill:#262626;"/><rect x="22.756" y="17.612" width="2.853" height="0.203" style="fill:#262626;"/><rect x="22.756" y="19.644" width="2.853" height="0.202" style="fill:#262626;"/><rect x="11.342" y="18.628" width="2.378" height="0.203" style="fill:#262626;"/><rect x="11.342" y="19.136" width="2.378" height="0.203" style="fill:#262626;"/><rect x="11.342" y="18.12" width="2.378" height="0.203" style="fill:#262626;"/><rect x="11.342" y="17.612" width="2.378" height="0.203" style="fill:#262626;"/><rect x="11.342" y="19.644" width="2.378" height="0.202" style="fill:#262626;"/><path d="M11.818,18.729c0,-0.42 0.319,-0.761 0.713,-0.761c0.394,0 0.713,0.341 0.713,0.761c0,0.421 -0.319,0.762 -0.713,0.762c-0.394,0 -0.713,-0.341 -0.713,-0.762Z" style="fill:#737373;"/></g></svg>