<?xml version="1.0" encoding="UTF-8" standalone="no"?><!DOCTYPE svg PUBLIC "-//W3C//DTD SVG 1.1//EN" "http://www.w3.org/Graphics/SVG/1.1/DTD/svg11.dtd"><svg width="100%" height="100%" viewBox="0 0 144 36" version="1.1" xmlns="http://www.w3.org/2000/svg" xmlns:xlink="http://www.w3.org/1999/xlink" xml:space="preserve" xmlns:serif="http://www.serif.com/" style="fill-rule:evenodd;clip-rule:evenodd;stroke-linejoin:round;stroke-miterlimit:2;"><g><g><path d="M136.404,21.695l-2.701,2.111l-3.935,0.77l-11.994,3.213l-13.491,2.414l-27.533,0l-25.879,-1.693l-20.008,-4.704l-18.355,-3.556l-4.589,0l-2.294,-1.343l0,-1.812l2.294,-1.345l4.589,0l18.355,-3.556l20.008,-4.704l25.879,-1.693l27.533,0l13.491,2.414l11.994,3.213l3.935,0.77l2.701,2.111l1.971,3.695l-1.971,3.695Z" style="fill:#f00;stroke:#fff;stroke-width:0.2px;"/><path d="M134.109,22.5l-9.177,0l-3.442,3.375l-1.147,-1.125l-2.294,0l-2.295,2.25l-4.588,0l-6.883,2.25l-27.533,0l-25.238,-2.25l-4.588,-0.791l-2.295,-1.459l-27.532,-4.5l-4.589,-0.714l-4.589,0l-1.147,-0.731l0,-0.34l-0.573,0l0,-0.919l0.573,0l0,-0.398l1.147,-0.648l4.589,0l4.589,-0.75l27.532,-4.5l2.295,-1.417l4.588,-0.833l25.238,-2.25l27.533,0l6.883,2.25l4.588,0l2.295,2.25l2.294,0l1.147,-1.125l3.442,3.375l9.177,0l2.295,2.25l1.147,2.25l-1.147,2.25l-2.295,2.25Z" style="fill:#f00;stroke:#fff;stroke-width:0.2px;"/><path d="M90.516,9l18.355,9l-18.355,9l-18.355,0l0,-18l18.355,0Zm-18.355,0l0,18l-9.177,-4.5l0,-9l9.177,-4.5Z" style="fill:#f00;stroke:#fff;stroke-width:0.2px;"/><path d="M73.576,24.75l0.306,1.895l-0.555,1.895l-2.905,0l-0.555,-1.895l0.307,-1.895l3.402,0Z" style="fill:#f00;stroke:#fff;stroke-width:0.2px;"/><path d="M70.174,11.25l-0.307,-1.895l0.555,-1.895l2.905,0l0.555,1.895l-0.306,1.895l-3.402,0Z" style="fill:#f00;stroke:#fff;stroke-width:0.2px;"/><path d="M71.413,7.312l-0.127,-1.687l-0.256,0l-0.128,1.687l-0.031,1.688l0.573,0l-0.031,-1.688Z" style="fill:#fff;"/><path d="M72.847,7.313l-0.127,-1.688l-0.256,0l-0.128,1.688l-0.031,1.687l0.573,0l-0.031,-1.687Z" style="fill:#fff;"/><path d="M53.807,21.813l-4.589,0.687l-4.589,-1.245l0,-6.51l4.589,-1.245l4.589,0.687l0,7.626Z" style="fill:#f00;stroke:#fff;stroke-width:0.2px;"/><path d="M42.908,19.687l-4.015,0.282l0,0.562l4.015,0.281l4.016,0.069l0,-1.262l-4.016,0.068Z" style="fill:#fff;"/><path d="M42.908,17.437l-4.015,0.282l0,0.562l4.015,0.281l4.016,0.069l0,-1.262l-4.016,0.068Z" style="fill:#fff;"/><path d="M42.908,15.187l-4.015,0.282l0,0.562l4.015,0.281l4.016,0.069l0,-1.262l-4.016,0.068Z" style="fill:#fff;"/><path d="M72.336,28.688l0.128,1.687l0.256,0l0.127,-1.687l0.031,-1.688l-0.573,0l0.031,1.688Z" style="fill:#fff;"/><path d="M70.902,28.688l0.128,1.687l0.256,0l0.127,-1.687l0.031,-1.688l-0.573,0l0.031,1.688Z" style="fill:#fff;"/><path d="M92.504,24.75l0.307,1.895l-0.556,1.895l-2.904,0l-0.555,-1.895l0.306,-1.895l3.402,0Z" style="fill:#f00;stroke:#fff;stroke-width:0.2px;"/><path d="M89.102,11.25l-0.306,-1.895l0.555,-1.895l2.904,0l0.556,1.895l-0.307,1.895l-3.402,0Z" style="fill:#f00;stroke:#fff;stroke-width:0.2px;"/><path d="M90.342,7.312l-0.128,-1.687l-0.256,0l-0.127,1.687l-0.032,1.688l0.574,0l-0.031,-1.688Z" style="fill:#fff;"/><path d="M91.776,7.313l-0.128,-1.688l-0.256,0l-0.127,1.688l-0.032,1.687l0.574,0l-0.031,-1.687Z" style="fill:#fff;"/><path d="M91.265,28.688l0.127,1.687l0.256,0l0.128,-1.687l0.031,-1.688l-0.574,0l0.032,1.688Z" style="fill:#fff;"/><path d="M89.831,28.688l0.127,1.687l0.256,0l0.128,-1.687l0.031,-1.688l-0.574,0l0.032,1.688Z" style="fill:#fff;"/><path d="M101.395,20.25l0.306,1.895l-0.555,1.895l-2.904,0l-0.556,-1.895l0.307,-1.895l3.402,0Z" style="fill:#f00;stroke:#fff;stroke-width:0.2px;"/><path d="M100.155,24.188l0.128,1.687l0.256,0l0.127,-1.687l0.032,-1.688l-0.574,0l0.031,1.688Z" style="fill:#fff;"/><path d="M98.721,24.188l0.128,1.687l0.256,0l0.127,-1.687l0.032,-1.688l-0.574,0l0.031,1.688Z" style="fill:#fff;"/><path d="M101.395,15.75l0.306,-1.895l-0.555,-1.895l-2.904,0l-0.556,1.895l0.307,1.895l3.402,0Z" style="fill:#f00;stroke:#fff;stroke-width:0.2px;"/><rect x="62.274" y="16.801" width="10.597" height="2.398" style="fill:#f00;stroke:#fff;stroke-width:0.2px;"/><path d="M100.155,11.812l0.128,-1.687l0.256,0l0.127,1.687l0.032,1.688l-0.574,0l0.031,-1.688Z" style="fill:#fff;"/><path d="M98.721,11.812l0.128,-1.687l0.256,0l0.127,1.687l0.032,1.688l-0.574,0l0.031,-1.688Z" style="fill:#fff;"/><rect x="94.395" y="16.801" width="10.597" height="2.398" style="fill:#f00;stroke:#fff;stroke-width:0.2px;"/><path d="M82.486,22.5l1.147,1.125l2.295,0l1.147,-1.125l-1.147,-3.375l0,-2.25l1.147,-3.375l-1.147,-1.125l-2.295,0l-1.147,1.125l1.147,3.375l0,2.25l-1.147,3.375Z" style="fill:#f00;stroke:#fff;stroke-width:0.2px;"/><path d="M110.018,21.813l4.589,0.687l4.589,-1.245l0,-6.51l-4.589,-1.245l-4.589,0.687l0,7.626Z" style="fill:#f00;stroke:#fff;stroke-width:0.2px;"/><path d="M120.917,19.688l4.015,0.281l0,0.562l-4.015,0.282l-4.015,0.068l0,-1.262l4.015,0.069Z" style="fill:#fff;"/><path d="M120.917,17.438l4.015,0.281l0,0.562l-4.015,0.282l-4.015,0.068l0,-1.262l4.015,0.069Z" style="fill:#fff;"/><path d="M120.917,15.188l4.015,0.281l0,0.562l-4.015,0.281l-4.015,0.069l0,-1.262l4.015,0.069Z" style="fill:#fff;"/><path d="M90.516,13.5l4.589,2.25l0,4.5l-4.589,2.25l-12.236,0l0,-9l12.236,0Zm-12.236,0l0,9l-6.119,-2.25l0,-4.5l6.119,-2.25Z" style="fill:#f00;stroke:#fff;stroke-width:0.2px;"/><path d="M129.521,22.5c-0,-1.446 1.197,-2.62 2.671,-2.62c1.475,0 2.672,1.174 2.672,2.62c-0,1.446 -1.197,2.62 -2.672,2.62c-1.474,0 -2.671,-1.174 -2.671,-2.62Z" style="fill:#f00;stroke:#fff;stroke-width:0.2px;"/><path d="M129.521,13.5c-0,-1.446 1.197,-2.62 2.671,-2.62c1.475,0 2.672,1.174 2.672,2.62c-0,1.446 -1.197,2.62 -2.672,2.62c-1.474,0 -2.671,-1.174 -2.671,-2.62Z" style="fill:#f00;stroke:#fff;stroke-width:0.2px;"/><path d="M69.113,18c0,-1.446 1.197,-2.62 2.671,-2.62c1.475,0 2.672,1.174 2.672,2.62c0,1.446 -1.197,2.62 -2.672,2.62c-1.474,0 -2.671,-1.174 -2.671,-2.62Z" style="fill:#f00;stroke:#fff;stroke-width:0.2px;"/><path d="M76.75,21.375c0,-1.446 1.197,-2.62 2.672,-2.62c1.474,0 2.671,1.174 2.671,2.62c0,1.446 -1.197,2.62 -2.671,2.62c-1.475,0 -2.672,-1.174 -2.672,-2.62Z" style="fill:#f00;stroke:#fff;stroke-width:0.2px;"/><path d="M76.75,14.625c0,-1.446 1.197,-2.62 2.672,-2.62c1.474,0 2.671,1.174 2.671,2.62c0,1.446 -1.197,2.62 -2.671,2.62c-1.475,0 -2.672,-1.174 -2.672,-2.62Z" style="fill:#f00;stroke:#fff;stroke-width:0.2px;"/><path d="M87.467,21.375c0,-1.446 1.198,-2.62 2.672,-2.62c1.475,0 2.672,1.174 2.672,2.62c0,1.446 -1.197,2.62 -2.672,2.62c-1.474,0 -2.672,-1.174 -2.672,-2.62Z" style="fill:#f00;stroke:#fff;stroke-width:0.2px;"/><path d="M87.467,14.625c0,-1.446 1.198,-2.62 2.672,-2.62c1.475,0 2.672,1.174 2.672,2.62c0,1.446 -1.197,2.62 -2.672,2.62c-1.474,0 -2.672,-1.174 -2.672,-2.62Z" style="fill:#f00;stroke:#fff;stroke-width:0.2px;"/><path d="M104.283,18c0,-1.446 1.197,-2.62 2.671,-2.62c1.475,0 2.672,1.174 2.672,2.62c0,1.446 -1.197,2.62 -2.672,2.62c-1.474,0 -2.671,-1.174 -2.671,-2.62Z" style="fill:#f00;stroke:#fff;stroke-width:0.2px;"/><path d="M79.045,15.75l-0.935,2.25l0.935,2.25l2.294,0.526l1.721,0l0.573,-0.526l2.295,0l0.573,0.526l1.721,0l0.566,-0.526l1.212,0l0.516,-1.125l0,-2.25l-0.516,-1.125l-1.212,0l-0.566,-0.526l-1.721,0l-0.573,0.526l-2.295,0l-0.573,-0.526l-1.721,0l-2.294,0.526Z" style="fill:#f00;stroke:#fff;stroke-width:0.2px;"/><path d="M66.426,21.813l-4.589,0.687l-4.589,-1.245l0,-6.51l4.589,-1.245l4.589,0.687l0,7.626Z" style="fill:#f00;stroke:#fff;stroke-width:0.2px;"/><path d="M55.527,19.687l-4.015,0.282l0,0.562l4.015,0.281l4.015,0.069l0,-1.262l-4.015,0.068Z" style="fill:#fff;"/><path d="M55.527,17.437l-4.015,0.282l0,0.562l4.015,0.281l4.015,0.069l0,-1.262l-4.015,0.068Z" style="fill:#fff;"/><path d="M55.527,15.187l-4.015,0.282l0,0.562l4.015,0.281l4.015,0.069l0,-1.262l-4.015,0.068Z" style="fill:#fff;"/><g><path d="M101.626,20.25c-0.916,-0.292 -1.584,-1.19 -1.584,-2.25c0,-1.06 0.668,-1.958 1.584,-2.25l3.169,0c0.916,0.292 1.584,1.19 1.584,2.25c0,1.06 -0.668,1.958 -1.584,2.25l-3.169,0Z" style="fill:#f00;stroke:#fff;stroke-width:0.2px;"/><path d="M102.074,19.516c-0.657,-0.197 -1.136,-0.801 -1.136,-1.516c0,-0.715 0.479,-1.319 1.136,-1.516l2.273,0c0.657,0.197 1.136,0.801 1.136,1.516c0,0.715 -0.479,1.319 -1.136,1.516l-2.273,0Z" style="fill:#f00;stroke:#fff;stroke-width:0.2px;"/></g><g><path d="M91.791,20.25c-0.917,-0.292 -1.584,-1.19 -1.584,-2.25c0,-1.06 0.667,-1.958 1.584,-2.25l3.168,0c0.917,0.292 1.584,1.19 1.584,2.25c0,1.06 -0.667,1.958 -1.584,2.25l-3.168,0Z" style="fill:#f00;stroke:#fff;stroke-width:0.2px;"/><path d="M92.239,19.516c-0.658,-0.197 -1.137,-0.801 -1.137,-1.516c0,-0.715 0.479,-1.319 1.137,-1.516l2.272,0c0.658,0.197 1.137,0.801 1.137,1.516c0,0.715 -0.479,1.319 -1.137,1.516l-2.272,0Z" style="fill:#f00;stroke:#fff;stroke-width:0.2px;"/></g></g></g></svg>