<?xml version="1.0" encoding="UTF-8" standalone="no"?><!DOCTYPE svg PUBLIC "-//W3C//DTD SVG 1.1//EN" "http://www.w3.org/Graphics/SVG/1.1/DTD/svg11.dtd"><svg width="100%" height="100%" viewBox="0 0 180 36" version="1.1" xmlns="http://www.w3.org/2000/svg" xmlns:xlink="http://www.w3.org/1999/xlink" xml:space="preserve" xmlns:serif="http://www.serif.com/" style="fill-rule:evenodd;clip-rule:evenodd;stroke-linejoin:round;stroke-miterlimit:2;"><g><path d="M137.51,29.068l12.052,0l-3.341,6.203l-5.541,-0l-3.17,-6.203Z" style="fill:#808080;"/><path d="M137.51,6.932l12.052,-0l-3.341,-6.203l-5.541,0l-3.17,6.203Z" style="fill:#808080;"/><path d="M27.654,29.068l12.053,0l-3.341,6.203l-5.542,-0l-3.17,-6.203Z" style="fill:#808080;"/><path d="M27.654,6.932l12.053,-0l-3.341,-6.203l-5.542,0l-3.17,6.203Z" style="fill:#808080;"/><path d="M125.227,29.068l12.052,0l-3.34,6.203l-5.542,-0l-3.17,-6.203Z" style="fill:#808080;"/><path d="M97.763,25.572l27.464,-0l-7.613,9.422l-12.627,0l-7.224,-9.422Z" style="fill:#4d4d4d;"/><path d="M50.053,25.572l27.464,-0l-7.613,9.422l-12.627,0l-7.224,-9.422Z" style="fill:#4d4d4d;"/><path d="M50.053,10.693l27.464,0l-7.613,-9.422l-12.627,0l-7.224,9.422Z" style="fill:#4d4d4d;"/><path d="M88.723,29.068l12.053,0l-3.341,6.203l-5.541,-0l-3.171,-6.203Z" style="fill:#808080;"/><path d="M76.44,29.068l12.053,0l-3.341,6.203l-5.541,-0l-3.171,-6.203Z" style="fill:#808080;"/><path d="M125.227,6.932l12.052,-0l-3.34,-6.203l-5.542,0l-3.17,6.203Z" style="fill:#808080;"/><path d="M39.937,29.068l12.053,0l-3.341,6.203l-5.542,-0l-3.17,-6.203Z" style="fill:#808080;"/><path d="M39.937,6.932l12.053,-0l-3.341,-6.203l-5.542,0l-3.17,6.203Z" style="fill:#808080;"/><path d="M19.125,2.888l-10.125,3.272l0,23.681l10.125,3.271l148.789,-0l3.086,-3.271l-0,-23.681l-3.086,-3.272l-148.789,0Z" style="fill:#595959;"/><path d="M93.023,0.729l-0,6.477l3.596,-0l-0,2.159l1.144,1.079l2.126,0l7.029,-2.698l-0,-5.937l-5.885,-0l-1.144,-1.08l-6.866,0Z" style="fill:#8c8c8c;"/><path d="M84.375,0.729l2.026,1.521l0,8.194l-0.901,0.806l-1.125,0l-0.721,-1.245l-1.157,0l-0.755,0.439l-2.207,0l-6.947,-2.159l-0,-4.317l5.803,-2.159l1.144,-1.08l4.84,0Z" style="fill:#8c8c8c;"/><path d="M85.5,1.125l0.562,-0.394l0.563,0.003l0.563,0.391l1.687,0l0.878,-0.396l1.144,0l1.144,0.54l2.289,0l1.021,-0.54l5.147,2.556l0,1.215l0.752,0l0.502,-1.125l1.149,0l0.599,1.125l-0,1.665l-0.599,0.585l-2.403,0l0,1.001l-5.147,2.693l-0.449,0.408l-1.144,0l-0.572,-0.408l-3.186,0l-0.561,0.806l-1.095,-0l-0.594,-0.806l-2.087,0l-0,-0.004l-2.413,-1.44l-3.796,-1.249l-0,-4.466l3.796,-1.597l2.25,-0l0,-0.563Z" style="fill:#737373;"/><path d="M85.5,2.25l9,0l4.407,1.546l0,3.474l-4.407,1.73l-6.268,0l-0.482,0.763l-1.741,0l-0.509,-0.763l-4.902,-1.73l-0,-3.474l4.902,-1.546Z" style="fill:#b3b3b3;"/><path d="M10.794,24.248l-1.144,0.464l1.144,0.45l59.505,-0l-0,-0.914l-59.505,0Z" style="fill:#b3b3b3;"/><path d="M10.794,11.752l-1.144,-0.444l1.144,-0.47l59.505,0l-0,0.914l-59.505,-0Z" style="fill:#b3b3b3;"/><rect x="69.331" y="2.888" width="0.968" height="30.224" style="fill:#b3b3b3;"/><path d="M169.856,11.752l1.144,-0.464l-1.144,-0.45l-59.505,0l-0,0.914l59.505,-0Z" style="fill:#b3b3b3;"/><path d="M169.09,18.457l1.91,-0.464l-1.91,-0.45l-99.344,0l-0,0.914l99.344,-0Z" style="fill:#b3b3b3;"/><path d="M169.856,24.248l1.144,0.444l-1.144,0.47l-59.505,-0l-0,-0.914l59.505,0Z" style="fill:#b3b3b3;"/><rect x="110.351" y="2.888" width="0.968" height="30.224" style="fill:#b3b3b3;"/><g><path d="M61.124,21.184c-0.055,0.403 -0.032,0.731 0.084,1.168l0.201,0.029l3.305,-0.386l2.09,-0.404l0.688,-0.269l-0.719,-0.169l-2.128,-0.129l-3.325,0.115l-0.196,0.045Z"/><path d="M61.172,21.854l-0.179,-0.001l-0.059,-0.035l-0.004,-0.053l0.054,-0.043l0.177,-0.026l0.011,0.158Z"/><path d="M61.693,21.737l0.097,0.548l0.008,0.19l-0.096,0.007l0.274,2.4c0.162,0.602 0.757,0.41 1.169,-0.138l0.135,-1.933l-0.084,-1.182l-1.503,0.108Z"/><path d="M61.693,21.737l0.018,-0.556l-0.019,-0.189l-0.096,0.007l-0.071,-2.415c0.075,-0.619 0.691,-0.514 1.177,-0.03l0.409,1.894l0.085,1.181l-1.503,0.108Z"/><path d="M66.762,21.374l-0.013,0.255l-0.019,1.173c-0.144,0.19 -0.269,0.257 -0.527,0.038l-0.404,-1.397l0.963,-0.069Z"/><path d="M66.789,21.372l-0.049,-0.251l-0.186,-1.158c-0.17,-0.168 -0.303,-0.216 -0.528,0.038l-0.2,1.44l0.963,-0.069Z"/></g><g><path d="M74.431,25.899c-0.402,0.068 -0.707,0.189 -1.089,0.431l0.033,0.2l1.361,3.037l1.013,1.872l0.462,0.575l-0.054,-0.736l-0.516,-2.069l-1.108,-3.137l-0.102,-0.173Z"/><path d="M73.807,26.146l-0.053,-0.171l0.015,-0.067l0.049,-0.019l0.057,0.038l0.078,0.161l-0.146,0.058Z"/><path d="M74.074,26.608l-0.494,0.257l-0.178,0.065l-0.035,-0.09l-2.207,0.982c-0.526,0.336 -0.164,0.845 0.482,1.074l1.885,-0.452l1.101,-0.435l-0.554,-1.401Z"/><path d="M74.074,26.608l0.536,-0.15l0.175,-0.075l-0.036,-0.09l2.282,-0.792c0.613,-0.115 0.698,0.504 0.382,1.113l-1.683,0.959l-1.102,0.436l-0.554,-1.401Z"/><path d="M75.942,31.334l-0.247,0.064l-1.124,0.334c-0.225,-0.08 -0.326,-0.179 -0.194,-0.492l1.211,-0.804l0.354,0.898Z"/><path d="M75.952,31.359l0.225,-0.122l1.049,-0.525c0.109,-0.213 0.115,-0.354 -0.195,-0.492l-1.434,0.241l0.355,0.898Z"/></g><g><path d="M80.023,26.398c-0.401,0.069 -0.707,0.19 -1.089,0.431l0.033,0.2l1.361,3.037l1.013,1.873l0.463,0.574l-0.055,-0.736l-0.516,-2.069l-1.108,-3.137l-0.102,-0.173Z"/><path d="M79.399,26.645l-0.053,-0.171l0.015,-0.067l0.05,-0.019l0.057,0.038l0.078,0.161l-0.147,0.058Z"/><path d="M79.667,27.107l-0.494,0.258l-0.178,0.064l-0.036,-0.09l-2.207,0.983c-0.526,0.335 -0.164,0.844 0.483,1.073l1.884,-0.451l1.102,-0.436l-0.554,-1.401Z"/><path d="M79.667,27.107l0.536,-0.15l0.174,-0.075l-0.035,-0.089l2.282,-0.793c0.613,-0.114 0.697,0.505 0.381,1.114l-1.683,0.959l-1.101,0.435l-0.554,-1.401Z"/><path d="M81.535,31.833l-0.247,0.065l-1.124,0.334c-0.226,-0.081 -0.327,-0.18 -0.195,-0.492l1.211,-0.805l0.355,0.898Z"/><path d="M81.545,31.858l0.225,-0.122l1.048,-0.525c0.109,-0.213 0.115,-0.354 -0.194,-0.492l-1.434,0.241l0.355,0.898Z"/></g><g><path d="M85.681,26.398c-0.402,0.069 -0.707,0.19 -1.089,0.431l0.033,0.2l1.361,3.037l1.013,1.873l0.462,0.574l-0.054,-0.736l-0.516,-2.069l-1.108,-3.137l-0.102,-0.173Z"/><path d="M85.057,26.645l-0.053,-0.171l0.015,-0.067l0.049,-0.019l0.057,0.038l0.078,0.161l-0.146,0.058Z"/><path d="M85.324,27.107l-0.494,0.258l-0.178,0.064l-0.035,-0.09l-2.207,0.983c-0.526,0.335 -0.164,0.844 0.482,1.073l1.885,-0.451l1.101,-0.436l-0.554,-1.401Z"/><path d="M85.324,27.107l0.536,-0.15l0.175,-0.075l-0.036,-0.089l2.282,-0.793c0.613,-0.114 0.698,0.505 0.382,1.114l-1.683,0.959l-1.102,0.435l-0.554,-1.401Z"/><path d="M87.192,31.833l-0.247,0.065l-1.124,0.334c-0.225,-0.081 -0.326,-0.18 -0.194,-0.492l1.211,-0.805l0.354,0.898Z"/><path d="M87.202,31.858l0.225,-0.122l1.049,-0.525c0.109,-0.213 0.115,-0.354 -0.195,-0.492l-1.434,0.241l0.355,0.898Z"/></g><g><path d="M91.338,26.398c-0.401,0.069 -0.707,0.19 -1.089,0.431l0.033,0.2l1.361,3.037l1.013,1.873l0.463,0.574l-0.055,-0.736l-0.516,-2.069l-1.108,-3.137l-0.102,-0.173Z"/><path d="M90.714,26.645l-0.053,-0.171l0.015,-0.067l0.05,-0.019l0.057,0.038l0.078,0.161l-0.147,0.058Z"/><path d="M90.982,27.107l-0.494,0.258l-0.178,0.064l-0.036,-0.09l-2.207,0.983c-0.526,0.335 -0.164,0.844 0.483,1.073l1.884,-0.451l1.102,-0.436l-0.554,-1.401Z"/><path d="M90.982,27.107l0.536,-0.15l0.174,-0.075l-0.035,-0.089l2.282,-0.793c0.613,-0.114 0.697,0.505 0.381,1.114l-1.683,0.959l-1.101,0.435l-0.554,-1.401Z"/><path d="M92.85,31.833l-0.247,0.065l-1.124,0.334c-0.226,-0.081 -0.327,-0.18 -0.195,-0.492l1.211,-0.805l0.355,0.898Z"/><path d="M92.86,31.858l0.225,-0.122l1.048,-0.525c0.109,-0.213 0.115,-0.354 -0.194,-0.492l-1.434,0.241l0.355,0.898Z"/></g><g><path d="M96.931,26.398c-0.402,0.069 -0.707,0.19 -1.089,0.431l0.033,0.2l1.361,3.037l1.013,1.873l0.462,0.574l-0.054,-0.736l-0.516,-2.069l-1.108,-3.137l-0.102,-0.173Z"/><path d="M96.307,26.645l-0.053,-0.171l0.015,-0.067l0.049,-0.019l0.057,0.038l0.078,0.161l-0.146,0.058Z"/><path d="M96.574,27.107l-0.494,0.258l-0.178,0.064l-0.035,-0.09l-2.207,0.983c-0.526,0.335 -0.164,0.844 0.482,1.073l1.885,-0.451l1.101,-0.436l-0.554,-1.401Z"/><path d="M96.574,27.107l0.536,-0.15l0.175,-0.075l-0.036,-0.089l2.282,-0.793c0.613,-0.114 0.698,0.505 0.382,1.114l-1.683,0.959l-1.102,0.435l-0.554,-1.401Z"/><path d="M98.442,31.833l-0.247,0.065l-1.124,0.334c-0.225,-0.081 -0.326,-0.18 -0.194,-0.492l1.211,-0.805l0.354,0.898Z"/><path d="M98.452,31.858l0.225,-0.122l1.049,-0.525c0.109,-0.213 0.115,-0.354 -0.195,-0.492l-1.434,0.241l0.355,0.898Z"/></g><g><path d="M131.965,21.82c-0.095,0.396 -0.105,0.724 -0.034,1.17l0.197,0.049l3.328,-0.053l2.12,-0.193l0.711,-0.198l-0.698,-0.24l-2.105,-0.342l-3.32,-0.219l-0.199,0.026Z"/><path d="M131.946,22.491l-0.178,-0.019l-0.056,-0.04l0.002,-0.053l0.058,-0.038l0.178,-0.008l-0.004,0.158Z"/><path d="M132.476,22.427l0.042,0.555l-0.011,0.19l-0.097,-0.003l0.033,2.415c0.101,0.616 0.711,0.484 1.176,-0.02l0.329,-1.909l0.034,-1.184l-1.506,-0.044Z"/><path d="M132.476,22.427l0.074,-0.552l-0,-0.189l-0.097,-0.003l0.172,-2.41c0.136,-0.608 0.738,-0.442 1.173,0.089l0.218,1.925l-0.034,1.184l-1.506,-0.044Z"/><path d="M137.556,22.574l-0.039,0.253l-0.136,1.164c-0.163,0.175 -0.294,0.229 -0.529,-0.015l-0.261,-1.43l0.965,0.028Z"/><path d="M137.582,22.575l-0.023,-0.255l-0.069,-1.171c-0.153,-0.184 -0.28,-0.245 -0.529,-0.015l-0.344,1.413l0.965,0.028Z"/></g><g><path d="M59.977,10.812c-0.102,0.394 -0.117,0.722 -0.054,1.169l0.196,0.052l3.328,0.005l2.124,-0.156l0.714,-0.187l-0.694,-0.252l-2.099,-0.378l-3.315,-0.276l-0.2,0.023Z"/><path d="M59.946,11.482l-0.177,-0.022l-0.055,-0.041l0.003,-0.053l0.058,-0.036l0.179,-0.006l-0.008,0.158Z"/><path d="M60.478,11.427l0.032,0.556l-0.015,0.189l-0.096,-0.004l-0.009,2.415c0.09,0.618 0.703,0.497 1.177,0l0.361,-1.903l0.054,-1.183l-1.504,-0.07Z"/><path d="M60.478,11.427l0.083,-0.55l0.003,-0.19l-0.097,-0.004l0.214,-2.406c0.147,-0.607 0.746,-0.43 1.172,0.108l0.184,1.929l-0.055,1.183l-1.504,-0.07Z"/><path d="M65.554,11.662l-0.043,0.252l-0.156,1.162c-0.166,0.172 -0.298,0.224 -0.528,-0.024l-0.237,-1.435l0.964,0.045Z"/><path d="M65.581,11.663l-0.019,-0.255l-0.049,-1.171c-0.149,-0.187 -0.276,-0.251 -0.528,-0.025l-0.369,1.406l0.965,0.045Z"/></g><g><path d="M54.263,25.416c-0.102,0.394 -0.117,0.722 -0.054,1.17l0.196,0.052l3.328,0.004l2.124,-0.156l0.714,-0.186l-0.694,-0.252l-2.099,-0.378l-3.315,-0.276l-0.2,0.022Z"/><path d="M54.232,26.087l-0.177,-0.022l-0.055,-0.042l0.002,-0.053l0.059,-0.036l0.179,-0.005l-0.008,0.158Z"/><path d="M54.764,26.032l0.032,0.556l-0.015,0.189l-0.096,-0.005l-0.009,2.416c0.09,0.617 0.703,0.496 1.176,0l0.362,-1.903l0.054,-1.183l-1.504,-0.07Z"/><path d="M54.764,26.032l0.083,-0.55l0.003,-0.19l-0.097,-0.004l0.214,-2.407c0.147,-0.606 0.746,-0.429 1.172,0.109l0.184,1.928l-0.055,1.184l-1.504,-0.07Z"/><path d="M59.84,26.266l-0.043,0.253l-0.156,1.162c-0.166,0.172 -0.298,0.223 -0.529,-0.025l-0.237,-1.434l0.965,0.044Z"/><path d="M59.867,26.268l-0.019,-0.255l-0.049,-1.172c-0.149,-0.187 -0.276,-0.25 -0.529,-0.024l-0.368,1.406l0.965,0.045Z"/></g><g><path d="M46.424,10.677c-0.066,0.401 -0.052,0.729 0.051,1.169l0.2,0.035l3.315,-0.294l2.101,-0.346l0.695,-0.249l-0.714,-0.189l-2.124,-0.188l-3.327,0.021l-0.197,0.041Z"/><path d="M46.454,11.347l-0.179,-0.006l-0.058,-0.036l-0.003,-0.053l0.055,-0.041l0.178,-0.022l0.007,0.158Z"/><path d="M46.978,11.245l0.082,0.551l0.002,0.189l-0.096,0.005l0.207,2.406c0.145,0.607 0.745,0.432 1.172,-0.105l0.189,-1.928l-0.051,-1.183l-1.505,0.065Z"/><path d="M46.978,11.245l0.034,-0.556l-0.014,-0.189l-0.097,0.004l-0.003,-2.415c0.092,-0.617 0.705,-0.495 1.177,0.003l0.356,1.904l0.052,1.184l-1.505,0.065Z"/><path d="M52.055,11.024l-0.02,0.255l-0.052,1.171c-0.15,0.187 -0.276,0.25 -0.528,0.023l-0.365,-1.407l0.965,-0.042Z"/><path d="M52.082,11.023l-0.042,-0.252l-0.154,-1.163c-0.165,-0.173 -0.297,-0.224 -0.528,0.023l-0.241,1.434l0.965,-0.042Z"/></g><g><path d="M154.008,12.094c-0.056,0.403 -0.033,0.731 0.082,1.168l0.201,0.029l3.306,-0.384l2.091,-0.402l0.687,-0.268l-0.718,-0.17l-2.129,-0.131l-3.325,0.112l-0.195,0.046Z"/><path d="M154.055,12.763l-0.179,-0.001l-0.059,-0.034l-0.004,-0.053l0.054,-0.043l0.177,-0.026l0.011,0.157Z"/><path d="M154.577,12.647l0.096,0.549l0.008,0.189l-0.097,0.007l0.273,2.4c0.162,0.603 0.756,0.411 1.169,-0.137l0.137,-1.933l-0.084,-1.181l-1.502,0.106Z"/><path d="M154.577,12.647l0.018,-0.556l-0.019,-0.189l-0.097,0.007l-0.068,-2.415c0.075,-0.619 0.691,-0.513 1.176,-0.029l0.408,1.894l0.084,1.182l-1.502,0.106Z"/><path d="M159.645,12.288l-0.013,0.256l-0.02,1.172c-0.144,0.19 -0.269,0.257 -0.527,0.037l-0.403,-1.397l0.963,-0.068Z"/><path d="M159.672,12.286l-0.049,-0.251l-0.185,-1.157c-0.17,-0.169 -0.303,-0.217 -0.527,0.037l-0.202,1.44l0.963,-0.069Z"/></g><path d="M88.982,6.75c-0,-1.523 1.236,-2.759 2.759,-2.759c1.523,-0 2.759,1.236 2.759,2.759c0,1.523 -1.236,2.759 -2.759,2.759c-1.523,0 -2.759,-1.236 -2.759,-2.759Z" style="fill:#ccc;"/><path d="M95.793,5.625c0,-0.621 0.518,-1.126 1.156,-1.126c0.637,0 1.155,0.505 1.155,1.126c0,0.621 -0.518,1.125 -1.155,1.125c-0.638,-0 -1.156,-0.504 -1.156,-1.125Z" style="fill:#a6a6a6;"/></g></svg>