<?xml version="1.0" encoding="UTF-8" standalone="no"?><!DOCTYPE svg PUBLIC "-//W3C//DTD SVG 1.1//EN" "http://www.w3.org/Graphics/SVG/1.1/DTD/svg11.dtd"><svg width="100%" height="100%" viewBox="0 0 72 36" version="1.1" xmlns="http://www.w3.org/2000/svg" xmlns:xlink="http://www.w3.org/1999/xlink" xml:space="preserve" xmlns:serif="http://www.serif.com/" style="fill-rule:evenodd;clip-rule:evenodd;stroke-linejoin:round;stroke-miterlimit:2;"><g><path d="M11.735,15.753l-3.787,2.222l3.787,2.221l4.167,2.304l4.013,1.027l17.421,0.579l22.704,-1.606l2.554,-0.943l1.458,-3.582l-1.458,-3.432l-2.554,-1.043l-22.704,-1.606l-17.421,0.529l-4.013,1.077l-4.167,2.253Z" style="stroke:#fff;stroke-width:0.2px;"/><path d="M16.12,14.112l-6.959,3.866l6.959,3.91l3.861,0.99l18.142,0.466l21.608,-1.456l2.16,-0.883l1.541,-3.027l-1.541,-2.827l-2.16,-1.039l-21.608,-1.422l-18.142,0.423l-3.861,0.999Z" style="stroke:#fff;stroke-width:0.2px;"/><path d="M21.929,20.25l-0,-4.5l3.669,-1.686l3.37,-0.011l-0,0.011c0.107,-0.008 0.214,-0.011 0.322,-0.011c1.588,0 2.519,0.518 3.262,1.697l2.25,0l0,-2.25l4.5,0l0,2.25l14.625,0l1.125,1.263l0,1.974l-1.125,1.263l-14.625,-0l0,2.25l-4.5,-0l0,-2.25l-2.25,-0c-0.743,1.179 -1.674,1.697 -3.262,1.697c-0.108,-0 -0.215,-0.003 -0.322,-0.011l0,0.011l-3.37,-0.011l-3.669,-1.686Z" style="stroke:#fff;stroke-width:0.2px;"/><path d="M35.646,23.357c-0.776,0 -1.406,-0.318 -1.406,-0.71c0,-0.391 0.63,-0.71 1.406,-0.71l2.812,0c0.777,0 1.407,0.319 1.407,0.71c0,0.392 -0.63,0.71 -1.407,0.71l-2.812,0Z" style="stroke:#fff;stroke-width:0.2px;"/><path d="M35.646,14.062c-0.776,-0 -1.406,-0.318 -1.406,-0.709c0,-0.392 0.63,-0.71 1.406,-0.71l2.812,0c0.777,0 1.407,0.318 1.407,0.71c0,0.391 -0.63,0.709 -1.407,0.709l-2.812,0Z" style="stroke:#fff;stroke-width:0.2px;"/><path d="M24.677,15.75l-1.125,0.517l-0.516,1.059l-0.609,0l0,1.234l0.609,0l0.516,1.156l1.125,0.534l3.375,0l1.125,-0.534l0.62,0l0.505,-0.591l0,-2.25l-0.505,-0.608l-0.62,0l-1.125,-0.517l-3.375,0Z" style="stroke:#fff;stroke-width:0.2px;"/><rect x="30.302" y="15.144" width="2.25" height="5.68" style="stroke:#fff;stroke-width:0.2px;"/><rect x="24.677" y="18" width="5.625" height="1.863" style="stroke:#fff;stroke-width:0.2px;"/><rect x="24.677" y="16.137" width="5.625" height="1.863" style="stroke:#fff;stroke-width:0.2px;"/><path d="M27.516,19.345l-1.346,-0.672l-0,-1.346l1.346,-0.672l2.691,0l1.345,0.672l-0,1.346l-1.345,0.672l-2.691,0Z" style="stroke:#fff;stroke-width:0.2px;"/><path d="M37.925,19.516c-1.41,-0.197 -2.438,-0.801 -2.438,-1.516c-0,-0.715 1.028,-1.319 2.438,-1.516l4.874,0c1.41,0.197 2.438,0.801 2.438,1.516c-0,0.715 -1.028,1.319 -2.438,1.516l-4.874,0Z" style="stroke:#fff;stroke-width:0.2px;"/><rect x="39.302" y="17.436" width="4.5" height="1.128" style="stroke:#fff;stroke-width:0.2px;"/><path d="M35.468,20.25c-0.916,-0.292 -1.584,-1.19 -1.584,-2.25c0,-1.06 0.668,-1.958 1.584,-2.25l3.168,0c0.917,0.292 1.585,1.19 1.585,2.25c0,1.06 -0.668,1.958 -1.585,2.25l-3.168,0Z" style="stroke:#fff;stroke-width:0.2px;"/><path d="M35.916,19.516c-0.658,-0.197 -1.137,-0.801 -1.137,-1.516c-0,-0.715 0.479,-1.319 1.137,-1.516l2.273,0c0.657,0.197 1.136,0.801 1.136,1.516c-0,0.715 -0.479,1.319 -1.136,1.516l-2.273,0Z" style="stroke:#fff;stroke-width:0.2px;"/><path d="M44.714,20.25c0,-0.739 0.6,-1.338 1.338,-1.338c0.739,0 1.338,0.599 1.338,1.338c0,0.739 -0.599,1.338 -1.338,1.338c-0.738,0 -1.338,-0.599 -1.338,-1.338Z" style="stroke:#fff;stroke-width:0.2px;"/><path d="M44.714,15.75c0,-0.739 0.6,-1.338 1.338,-1.338c0.739,0 1.338,0.599 1.338,1.338c0,0.739 -0.599,1.338 -1.338,1.338c-0.738,0 -1.338,-0.599 -1.338,-1.338Z" style="stroke:#fff;stroke-width:0.2px;"/><path d="M14.552,18c0,-1.937 1.573,-3.509 3.51,-3.509c1.936,0 3.509,1.572 3.509,3.509c-0,1.937 -1.573,3.509 -3.509,3.509c-1.937,0 -3.51,-1.572 -3.51,-3.509Z" style="stroke:#fff;stroke-width:0.2px;"/><path d="M51.543,18c0,-1.937 1.572,-3.509 3.509,-3.509c1.937,0 3.51,1.572 3.51,3.509c0,1.937 -1.573,3.509 -3.51,3.509c-1.937,0 -3.509,-1.572 -3.509,-3.509Z" style="stroke:#fff;stroke-width:0.2px;"/><path d="M54.582,17.15l0.821,0.088l0.733,0.421l-0.301,1.122l-0.847,0.008l-0.758,-0.325l0.352,-1.314Z" style="stroke:#fff;stroke-width:0.2px;"/><path d="M56.588,18.523l1.495,0.327l0.041,-0.154l-1.463,-0.444l-0.851,-0.368l-0.145,0.543l0.923,0.096Z" style="fill:#fff;"/><path d="M20.312,19.43l-1.688,0.257l-1.687,-0.466l0,-2.442l1.687,-0.467l1.688,0.258l0,2.86Z" style="stroke:#fff;stroke-width:0.2px;"/><path d="M16.937,17.719l-2.25,0.147l0,0.267l2.25,0.148l0.562,0l0,-0.562l-0.562,0Z" style="fill:#fff;"/></g></svg>